<svg width="43" height="43" viewBox="0 0 43 43" fill="none" xmlns="http://www.w3.org/2000/svg">
<g id="Group 124854">
<g id="Group">
<g id="Group_2">
<path id="Vector" d="M29.5075 24.13C28.204 23.1933 27.3844 22.2372 27.3118 22.1511L29.5075 24.13ZM29.5075 24.13C30.8087 25.065 32.6176 25.9988 34.6629 25.9988M29.5075 24.13L34.6629 25.9988M34.6629 25.9988C36.7081 25.9988 38.517 25.065 39.8182 24.13C41.1223 23.193 41.9419 22.2365 42.014 22.151M34.6629 25.9988L42.014 22.151M27.3118 20.8468C27.3838 20.7614 28.2035 19.8049 29.5075 18.8678C30.8087 17.9329 32.6176 16.999 34.6629 16.999C36.7081 16.999 38.517 17.9329 39.8182 18.8678C41.1218 19.8045 41.9413 20.7607 42.0139 20.8467L27.3118 20.8468ZM27.3118 20.8468C26.9937 21.2234 26.9937 21.7744 27.3118 22.151L27.3118 20.8468ZM42.014 22.151C42.332 21.7744 42.332 21.2234 42.014 20.8468L42.014 22.151ZM34.6629 23.9773C33.5015 23.9773 32.3934 23.5423 31.453 22.9854C30.6331 22.4999 29.9531 21.9292 29.4934 21.4979C29.9521 21.0667 30.6319 20.4966 31.4519 20.0118C32.3926 19.4557 33.5013 19.0214 34.6629 19.0214C35.8243 19.0214 36.9324 19.4564 37.8728 20.0132C38.6927 20.4987 39.3726 21.0694 39.8323 21.5008C39.3737 21.932 38.6938 22.502 37.8738 22.9868C36.9332 23.543 35.8244 23.9773 34.6629 23.9773Z" fill="#FFD976" stroke="#FFD976" stroke-width="0.5"/>
<path id="Vector_2" d="M3.18428 24.13C1.88072 23.1933 1.0612 22.2372 0.988592 22.1511L3.18428 24.13ZM3.18428 24.13C4.48547 25.065 6.29437 25.9988 8.33963 25.9988M3.18428 24.13L8.33963 25.9988M8.33963 25.9988C10.3849 25.9988 12.1938 25.065 13.495 24.13C14.799 23.193 15.6187 22.2365 15.6907 22.151M8.33963 25.9988L15.6907 22.151M0.988509 20.8468C1.06058 20.7614 1.88022 19.8049 3.18428 18.8678C4.48547 17.9329 6.29437 16.999 8.33963 16.999C10.3849 16.999 12.1938 17.9329 13.495 18.8678C14.7985 19.8045 15.6181 20.7607 15.6907 20.8467L0.988509 20.8468ZM0.988509 20.8468C0.670497 21.2234 0.670497 21.7744 0.988509 22.151L0.988509 20.8468ZM15.6907 22.151C16.0088 21.7744 16.0088 21.2234 15.6907 20.8468L15.6907 22.151ZM8.33963 23.9773C7.17823 23.9773 6.07011 23.5423 5.12973 22.9854C4.30983 22.4999 3.62986 21.9292 3.17019 21.4979C3.62882 21.0667 4.30866 20.4966 5.12868 20.0118C6.06933 19.4557 7.1781 19.0214 8.33963 19.0214C9.50103 19.0214 10.6091 19.4564 11.5495 20.0132C12.3694 20.4987 13.0494 21.0694 13.5091 21.5008C13.0504 21.932 12.3706 22.502 11.5506 22.9868C10.6099 23.543 9.50115 23.9773 8.33963 23.9773Z" fill="#FFD976" stroke="#FFD976" stroke-width="0.5"/>
</g>
<g id="Group_3">
<path id="Vector_3" d="M20.8468 42.0145L20.847 42.0147C21.035 42.1729 21.267 42.2528 21.4989 42.2528C21.7308 42.2528 21.9628 42.1729 22.1508 42.0147L22.151 42.0145C22.2365 41.9424 23.193 41.1228 24.13 39.8187C25.065 38.5175 25.9988 36.7086 25.9988 34.6634C25.9988 32.6181 25.065 30.8092 24.13 29.508C23.1933 28.2044 22.2372 27.3849 22.1511 27.3123C21.7745 26.9942 21.2234 26.9942 20.8468 27.3122C20.7614 27.3843 19.8049 28.2039 18.8678 29.508C17.9329 30.8092 16.999 32.6181 16.999 34.6634C16.999 36.7086 17.9329 38.5175 18.8678 39.8187C19.8049 41.1228 20.7614 41.9424 20.8468 42.0145ZM21.4989 42.0028C21.3243 42.0028 21.1498 41.9427 21.008 41.8234C20.8543 41.6937 17.249 38.6049 17.249 34.6634C17.249 30.7218 20.8543 27.633 21.008 27.5033C21.2915 27.2639 21.7063 27.2639 21.9898 27.5033C22.1436 27.633 25.7488 30.7218 25.7488 34.6634C25.7488 38.6049 22.1436 41.6937 21.9898 41.8234C21.8481 41.9427 21.6735 42.0028 21.4989 42.0028ZM22.9845 37.8731C22.4993 38.6929 21.9287 39.3728 21.4971 39.8327C21.2187 39.5365 20.882 39.1481 20.5487 38.6901C19.2764 36.9416 19.0206 35.5258 19.0206 34.6634C19.0206 33.502 19.4556 32.3938 20.0124 31.4535C20.4976 30.6341 21.0679 29.9544 21.4992 29.4948C21.9304 29.9534 22.5004 30.6334 22.9852 31.4535C23.5414 32.3943 23.9757 33.503 23.9757 34.6642C23.9757 35.8252 23.541 36.9329 22.9845 37.8731Z" fill="#FFD976" stroke="#FFD976" stroke-width="0.5"/>
<path id="Vector_4" d="M20.8468 15.6908L20.847 15.6909C21.035 15.8492 21.267 15.9291 21.4989 15.9291H21.4997C21.7316 15.9291 21.9636 15.8492 22.1516 15.6909L22.1518 15.6908C22.2373 15.6187 23.1938 14.799 24.1308 13.495C25.0658 12.1938 25.9996 10.3849 25.9996 8.33963C25.9996 6.29437 25.0658 4.48547 24.1308 3.18428C23.1941 1.88072 22.238 1.0612 22.1519 0.988592C21.7753 0.670497 21.2242 0.670469 20.8476 0.988509C20.7622 1.06056 19.8055 1.88019 18.8683 3.18426C17.9331 4.48544 16.999 6.29436 16.999 8.33963C16.999 10.3849 17.9329 12.1938 18.8678 13.495C19.8049 14.799 20.7614 15.6187 20.8468 15.6908ZM21.4989 15.6791C21.3243 15.6791 21.1498 15.619 21.008 15.4997L21.9906 1.17958C22.1444 1.30931 25.7496 4.39804 25.7496 8.33963C25.7496 12.2812 22.1444 15.3699 21.9906 15.4997C21.8489 15.619 21.6743 15.6791 21.4997 15.6791H21.4989ZM21.4995 3.17066C21.7779 3.46684 22.1144 3.85512 22.4475 4.3129C23.7198 6.06141 23.9757 7.47714 23.9757 8.33963C23.9757 9.50067 23.541 10.6086 22.9845 11.5489C22.4993 12.3687 21.9287 13.0487 21.4972 13.5083C21.2187 13.212 20.882 12.8236 20.5487 12.3656L20.5487 12.3655C19.2764 10.6178 19.0206 9.20212 19.0206 8.33963C19.0206 7.17862 19.4554 6.07069 20.012 5.13041C20.4975 4.31039 21.0682 3.63031 21.4995 3.17066Z" fill="#FFD976" stroke="#FFD976" stroke-width="0.5"/>
</g>
</g>
<g id="Group_4">
<g id="Group_5">
<path id="Vector_5" d="M25.2768 26.085L25.2768 26.0849C25.3132 25.6542 25.6544 25.313 26.0851 25.2766L26.0868 25.2765L26.0868 25.2765C26.0866 25.2765 26.0868 25.2765 26.0878 25.2764C26.0896 25.2762 26.0894 25.2763 26.0892 25.2763C26.089 25.2763 26.0887 25.2763 26.091 25.2761L26.1023 25.2753L26.1422 25.2725C26.1763 25.2702 26.2249 25.2673 26.2867 25.2644C26.4103 25.2586 26.5864 25.2529 26.8036 25.2529C27.4989 25.2529 28.7155 25.3124 30.036 25.6489C31.3559 25.9852 32.7878 26.6004 33.9047 27.7176L25.2768 26.085ZM25.2768 26.085C25.2679 26.1906 25.1718 27.4352 25.4291 29.006C25.686 30.575 26.2981 32.4847 27.7178 33.9045C28.835 35.0217 30.2672 35.6368 31.5872 35.9732C32.9073 36.3095 34.1234 36.3691 34.8189 36.3691L25.2768 26.085ZM28.9709 32.6522C29.8201 33.5014 30.9443 33.9861 32.0183 34.2594C33.0201 34.5143 33.97 34.5832 34.5942 34.5957C34.5809 33.9548 34.5096 33.0002 34.2532 31.9992C33.9788 30.9283 33.4949 29.8136 32.6524 28.9707C32.6524 28.9707 32.6524 28.9707 32.6524 28.9706M28.9709 32.6522L32.7408 28.8823L32.6524 28.9706M28.9709 32.6522C28.1284 31.8093 27.6445 30.6945 27.3701 29.6236C27.1137 28.6226 27.0424 27.668 27.029 27.0271M28.9709 32.6522L27.029 27.0271M32.6524 28.9706C31.8032 28.1215 30.6789 27.6365 29.605 27.3632C28.6031 27.1081 27.6532 27.0393 27.029 27.0271M32.6524 28.9706L27.029 27.0271M36.1934 32.6161C35.9365 31.0471 35.3244 29.1374 33.9047 27.7176L34.8197 36.3691C35.0365 36.3691 35.2124 36.3635 35.3358 36.3577C35.3975 36.3548 35.4462 36.3519 35.4802 36.3496L35.5202 36.3468L35.5314 36.3459L35.5333 36.3458L35.5347 36.3457L35.5357 36.3456L35.5373 36.3455C35.968 36.3091 36.3093 35.9678 36.3457 35.5371L36.3457 35.5371C36.3545 35.4315 36.4507 34.1868 36.1934 32.6161ZM25.4014 26.0955C25.4326 25.7255 25.7257 25.4324 26.0957 25.4012L27.8062 33.8161C25.0194 31.0292 25.3845 26.2957 25.4014 26.0955ZM36.2211 35.5266C36.1899 35.8966 35.8968 36.1897 35.5268 36.2209L36.2211 35.5266Z" fill="#FFD976" stroke="#FFD976" stroke-width="0.25"/>
<path id="Vector_6" d="M7.48141 6.78641C7.11143 6.81764 6.81834 7.11074 6.7871 7.48071C6.77029 7.68091 6.40512 12.4145 9.19194 15.2013L7.48141 6.78641ZM7.48141 6.78641C7.48191 6.78637 7.48294 6.78629 7.48448 6.78617C7.51703 6.78363 7.7787 6.76318 8.18932 6.76318C9.56752 6.76318 13.011 6.99942 15.202 9.19124L7.48141 6.78641ZM9.10355 15.2897C7.68381 13.87 7.07176 11.9602 6.8148 10.3912C6.55756 8.8205 6.65368 7.57582 6.66254 7.47025L6.66255 7.4702C6.69891 7.03949 7.04018 6.69821 7.47089 6.66185L7.4725 6.66171L7.4725 6.66172C7.47237 6.66173 7.47254 6.66172 7.4735 6.66165C7.47696 6.66138 7.4736 6.66164 7.47523 6.66151L7.47678 6.66139L7.48807 6.66053L7.52798 6.65772C7.56203 6.65545 7.61068 6.65253 7.67246 6.64963C7.79601 6.64385 7.97215 6.63818 8.18932 6.63818C8.88467 6.63818 10.1013 6.69769 11.4217 7.03415C12.7416 7.37047 14.1736 7.98563 15.2904 9.10285L9.10355 15.2897ZM9.10355 15.2897C10.2204 16.4069 11.6523 17.0221 12.9722 17.3584C14.2927 17.6949 15.5093 17.7544 16.2046 17.7544C16.4218 17.7544 16.598 17.7487 16.7215 17.7429C16.7833 17.74 16.8319 17.7371 16.866 17.7349L16.9059 17.732L16.9172 17.7312L16.9205 17.7309L16.9213 17.7309C16.9215 17.7308 16.9215 17.7308 16.9215 17.7309L16.9231 17.7307C17.3538 17.6944 17.6951 17.3531 17.7314 16.9224L17.7314 16.9223C17.7403 16.8168 17.8364 15.5721 17.5792 14.0013C17.3222 12.4324 16.7102 10.5226 15.2904 9.10287L9.10355 15.2897ZM10.3558 14.0374C11.205 14.8866 12.3293 15.3714 13.4032 15.6447C14.405 15.8996 15.3549 15.9684 15.9792 15.981C15.9658 15.3401 15.8945 14.3855 15.6381 13.3845C15.3637 12.3136 14.8798 11.1988 14.0373 10.3559C14.0373 10.3559 14.0373 10.3559 14.0373 10.3559M10.3558 14.0374L14.1257 10.2675L14.0373 10.3559M10.3558 14.0374C9.51332 13.1946 9.02942 12.0798 8.75506 11.0089C8.49862 10.0079 8.42732 9.05331 8.41399 8.41239M10.3558 14.0374L8.41399 8.41239M14.0373 10.3559C13.1881 9.50672 12.0639 9.02199 10.99 8.74871C9.98811 8.49377 9.03823 8.42492 8.41399 8.41239M14.0373 10.3559L8.41399 8.41239M17.6069 16.9119C17.5756 17.2818 17.2825 17.5749 16.9126 17.6062L17.6069 16.9119Z" fill="#FFD976" stroke="#FFD976" stroke-width="0.25"/>
</g>
<g id="Group_6">
<path id="Vector_7" d="M7.4725 36.3456L7.47089 36.3455C7.04018 36.3091 6.69891 35.9678 6.66255 35.5371L6.66254 35.5371C6.65368 35.4315 6.55756 34.1868 6.8148 32.6161C7.07176 31.0471 7.68381 29.1373 9.10355 27.7176C10.2208 26.6004 11.6527 25.9852 12.9725 25.6489C14.2929 25.3124 15.5093 25.2529 16.2046 25.2529C16.4218 25.2529 16.598 25.2586 16.7215 25.2644C16.7833 25.2673 16.8319 25.2702 16.866 25.2725L16.9059 25.2753L16.9172 25.2761L16.9205 25.2764L16.9215 25.2765L16.9231 25.2766L16.9231 25.2766C17.3538 25.313 17.6951 25.6542 17.7314 26.0849L17.7314 26.085C17.7403 26.1906 17.8364 27.4352 17.5792 29.006C17.3222 30.575 16.7101 32.4847 15.2904 33.9045C14.1732 35.0217 12.7412 35.6368 11.4213 35.9732C10.1014 36.3095 8.8852 36.3691 8.18932 36.3691L7.4725 36.3456ZM7.4725 36.3456L7.4735 36.3457L7.47492 36.3458L7.47678 36.3459L7.48806 36.3468L7.52798 36.3496C7.56203 36.3519 7.61067 36.3548 7.67246 36.3577C7.79586 36.3635 7.97171 36.3691 8.18852 36.3691L7.4725 36.3456ZM13.404 27.3635C12.3301 27.6367 11.2058 28.1215 10.3566 28.9707C9.51005 29.8172 9.02518 30.9325 8.75116 32.0025C8.495 33.0028 8.42512 33.9558 8.41295 34.5958C9.03684 34.5836 9.98703 34.515 10.9894 34.26C12.0637 33.9867 13.1885 33.5018 14.0381 32.6522C14.0381 32.6522 14.0381 32.6522 14.0381 32.6522M13.404 27.3635L14.1265 32.7406L14.0381 32.6522M13.404 27.3635C14.4058 27.1085 15.3557 27.0397 15.98 27.0271M13.404 27.3635L15.98 27.0271M14.0381 32.6522C14.8806 31.8093 15.3645 30.6947 15.6389 29.6239C15.8954 28.623 15.9666 27.6684 15.98 27.0271M14.0381 32.6522L15.98 27.0271" fill="#FFD976" stroke="#FFD976" stroke-width="0.25"/>
<path id="Vector_8" d="M26.0851 17.7307L26.0868 17.7308C26.0867 17.7308 26.0867 17.7308 26.0869 17.7309L26.0878 17.7309L26.091 17.7312L26.1023 17.732L26.1422 17.7349C26.1763 17.7371 26.2249 17.74 26.2867 17.7429C26.4103 17.7487 26.5864 17.7544 26.8036 17.7544C27.4989 17.7544 28.7153 17.6949 30.0357 17.3584C31.3555 17.0221 32.7874 16.4069 33.9047 15.2897C35.3244 13.87 35.9365 11.9602 36.1934 10.3912C36.4507 8.8205 36.3545 7.57582 36.3457 7.47025L36.3457 7.4702C36.3093 7.03949 35.968 6.69821 35.5373 6.66185L35.5373 6.66184L35.5357 6.66172L35.5347 6.66165L35.5314 6.66139L35.5202 6.66053L35.4802 6.65772C35.4462 6.65545 35.3975 6.65253 35.3358 6.64963C35.2122 6.64385 35.0361 6.63818 34.8189 6.63818C34.1236 6.63818 32.9072 6.69769 31.5868 7.03415C30.267 7.37047 28.835 7.98563 27.7178 9.10285C26.2981 10.5226 25.686 12.4323 25.4291 14.0013C25.1718 15.5721 25.2679 16.8168 25.2768 16.9223L25.2768 16.9224C25.3132 17.3531 25.6544 17.6944 26.0851 17.7307ZM28.9709 10.3559C29.8205 9.50633 30.9453 9.0214 32.0196 8.74811C33.022 8.49314 33.9722 8.42448 34.5961 8.41231C34.5839 9.05231 34.514 10.0053 34.2579 11.0056C33.9838 12.0756 33.499 13.1909 32.6524 14.0374C31.8032 14.8866 30.679 15.3714 29.605 15.6447C28.6032 15.8996 27.6533 15.9684 27.029 15.981C27.0424 15.3397 27.1137 14.3849 27.3701 13.3839C27.6445 12.313 28.1284 11.1984 28.9709 10.3559Z" fill="#FFD976" stroke="#FFD976" stroke-width="0.25"/>
</g>
</g>
</g>
</svg>
