<svg width="47" height="45" viewBox="0 0 47 45" fill="none" xmlns="http://www.w3.org/2000/svg">
<g clip-path="url(#clip0_2885_5059)">
<path fill-rule="evenodd" clip-rule="evenodd" d="M15.7253 5.17726C18.0596 4.23498 20.5616 3.75 23.0882 3.75C25.6149 3.75 28.1168 4.23498 30.4511 5.17726C32.7855 6.11953 34.9065 7.50065 36.6931 9.24175C38.4797 10.9828 39.8969 13.0498 40.8638 15.3247C41.8308 17.5995 42.3284 20.0377 42.3284 22.5C42.3284 24.9623 41.8308 27.4005 40.8638 29.6753C39.8969 31.9502 38.4797 34.0172 36.6931 35.7583C34.9065 37.4993 32.7855 38.8805 30.4511 39.8227C28.1168 40.765 25.6149 41.25 23.0882 41.25C20.5616 41.25 18.0596 40.765 15.7253 39.8227C13.391 38.8805 11.27 37.4993 9.48335 35.7583C7.69673 34.0172 6.27951 31.9502 5.3126 29.6753C4.34568 27.4005 3.84802 24.9623 3.84802 22.5C3.84802 20.0377 4.34568 17.5995 5.3126 15.3247C6.27951 13.0498 7.69673 10.9828 9.48335 9.24175C11.27 7.50065 13.391 6.11953 15.7253 5.17726ZM23.0882 7.5C21.0669 7.5 19.0654 7.88799 17.1979 8.64181C15.3304 9.39563 13.6336 10.5005 12.2043 11.8934C10.775 13.2863 9.64125 14.9399 8.86772 16.7597C8.09419 18.5796 7.69606 20.5302 7.69606 22.5C7.69606 24.4698 8.09419 26.4204 8.86772 28.2403C9.64125 30.0601 10.775 31.7137 12.2043 33.1066C13.6336 34.4995 15.3304 35.6044 17.1979 36.3582C19.0654 37.112 21.0669 37.5 23.0882 37.5C25.1095 37.5 27.1111 37.112 28.9785 36.3582C30.846 35.6044 32.5428 34.4995 33.9721 33.1066C35.4014 31.7137 36.5352 30.0601 37.3087 28.2403C38.0822 26.4204 38.4804 24.4698 38.4804 22.5C38.4804 20.5302 38.0822 18.5796 37.3087 16.7597C36.5352 14.9399 35.4014 13.2863 33.9721 11.8934C32.5428 10.5005 30.846 9.39563 28.9785 8.64181C27.1111 7.88799 25.1095 7.5 23.0882 7.5Z" fill="#FDCDC1"/>
<path fill-rule="evenodd" clip-rule="evenodd" d="M19.7341 26.9079C20.796 26.473 21.9363 26.249 23.0882 26.249C24.2401 26.249 25.3803 26.473 26.4423 26.9079C27.5042 27.3427 28.4664 27.9797 29.2725 28.7815C30.0162 29.5212 30.0038 30.7083 29.2448 31.433C28.4858 32.1577 27.2676 32.1456 26.5239 31.406C26.0761 30.9605 25.5415 30.6066 24.9516 30.365C24.3616 30.1235 23.7281 29.999 23.0882 29.999C22.4483 29.999 21.8148 30.1235 21.2248 30.365C20.6349 30.6066 20.1003 30.9605 19.6524 31.406C18.9088 32.1456 17.6906 32.1577 16.9316 31.433C16.1726 30.7083 16.1602 29.5212 16.9038 28.7815C17.71 27.9797 18.6722 27.3427 19.7341 26.9079Z" fill="#FDCDC1"/>
<path fill-rule="evenodd" clip-rule="evenodd" d="M15.3922 18.75C15.3922 17.7145 16.2536 16.875 17.3162 16.875H17.3355C18.3981 16.875 19.2595 17.7145 19.2595 18.75C19.2595 19.7855 18.3981 20.625 17.3355 20.625H17.3162C16.2536 20.625 15.3922 19.7855 15.3922 18.75Z" fill="#FDCDC1"/>
<path fill-rule="evenodd" clip-rule="evenodd" d="M26.9363 18.75C26.9363 17.7145 27.7977 16.875 28.8603 16.875H28.8795C29.9421 16.875 30.8036 17.7145 30.8036 18.75C30.8036 19.7855 29.9421 20.625 28.8795 20.625H28.8603C27.7977 20.625 26.9363 19.7855 26.9363 18.75Z" fill="#FDCDC1"/>
</g>
<defs>
<clipPath id="clip0_2885_5059">
<rect width="46.1765" height="45" fill="white"/>
</clipPath>
</defs>
</svg>
