<svg width="33" height="39" viewBox="0 0 33 39" fill="none" xmlns="http://www.w3.org/2000/svg">
<g id="Group 124852">
<path id="Vector" d="M27.6375 34.064L27.4594 33.8886L27.6376 34.064C30.711 30.9426 32.25 26.85 32.25 22.759C32.25 18.6681 30.7136 14.5758 27.6376 11.4539C27.6375 11.4539 27.6375 11.4539 27.6375 11.4539L27.6329 11.4492L27.4548 11.6246L27.6329 11.4492L16.6781 0.324588L16.3219 0.324591C15.1081 1.55722 13.897 2.80187 12.685 4.04747C10.2588 6.54103 7.82874 9.03844 5.36564 11.451L5.36561 11.451L5.36244 11.4542C2.2887 14.5757 0.75 18.668 0.75 22.7593C0.75 26.8505 2.28644 30.9425 5.36245 34.0643C8.43664 37.1857 12.4684 38.75 16.5 38.75C16.8121 38.75 17.1238 38.7404 17.4336 38.7208L17.6679 38.4713V31.9057L17.4179 31.6557H15.5821L15.3321 31.9057V36.332C12.2994 36.0644 9.33914 34.7531 7.01626 32.3939L6.84646 32.561L7.01625 32.3939C4.39703 29.734 3.08604 26.2452 3.08604 22.7573C3.08604 19.2694 4.39704 15.7801 7.01625 13.1202L6.83811 12.9448L7.01625 13.1202L16.5 3.48892L25.9779 13.1145L25.9769 13.1155L25.9812 13.1199C28.6005 15.7821 29.9118 19.2687 29.9118 22.757C29.9118 26.2455 28.6005 29.7337 25.9813 32.3933L25.9813 32.3933C24.0545 34.3503 21.6848 35.5871 19.2028 36.1055L19.0039 36.3502V38.2501L19.2989 38.496C22.3525 37.9379 25.2773 36.4606 27.6375 34.064Z" fill="#C7D9A7" stroke="#C7D9A7" stroke-width="0.5" stroke-linejoin="bevel"/>
<g id="Vector_2">
<mask id="path-2-outside-1_2911_1843" maskUnits="userSpaceOnUse" x="5" y="12.5" width="23" height="22" fill="black">
<rect fill="white" x="5" y="12.5" width="23" height="22"/>
<path d="M9.7835 17.5602V17.5624C9.47076 17.9549 9.19613 18.3697 8.96101 18.7987L8.91723 18.8767L8.91467 18.8793C8.85895 18.9864 8.80294 19.0938 8.75205 19.2006L8.74949 19.2032L8.71338 19.2789L8.70855 19.286L8.67187 19.3666V19.3691L8.63804 19.4471L8.63321 19.4614L8.60421 19.53L8.59454 19.5545C8.55076 19.6565 8.50954 19.7613 8.4686 19.8665L8.46377 19.8759L8.43931 19.9393L8.42737 19.9687L8.40292 20.0318L8.39582 20.0538L8.37393 20.1173L8.36454 20.1441L8.34265 20.2098L8.34009 20.2169C8.31564 20.2878 8.29404 20.3558 8.2747 20.4269L8.25765 20.4803L8.2457 20.522L8.2332 20.5637L8.21386 20.6317L8.20903 20.6488L8.19197 20.7145L8.18231 20.7491L8.16752 20.8074L8.15274 20.8636L8.14563 20.8928L8.12146 20.9905L8.11663 21.0076L8.10185 21.0784L8.08991 21.1296L8.08024 21.181L8.07057 21.2273L8.06347 21.269L8.05153 21.3298L8.04669 21.3589L8.03418 21.4204L8.02708 21.4644L8.01997 21.5106L8.01229 21.5595C8.00035 21.628 7.9904 21.696 7.98102 21.7669L7.97846 21.7914L7.97135 21.8425L7.96425 21.8985L7.96169 21.9277L7.95458 22.0011L7.95202 22.0279L7.94491 22.1036L7.94264 22.1256L7.93496 22.2036L7.93269 22.2256L7.92501 22.3256V22.3304L7.92046 22.4207L7.9179 22.4618L7.91535 22.5107L7.91307 22.5621L7.9108 22.6181V22.6498L7.90824 22.7155V22.752L7.90596 22.83V22.9468C7.90596 25.1586 8.74579 27.3678 10.4223 29.0554L10.4928 29.1233L10.5099 29.1405C10.5343 29.1625 10.5562 29.187 10.5807 29.209L10.5852 29.2139L10.6483 29.2722L10.6751 29.2967C12.3181 30.8207 14.41 31.5836 16.5018 31.5836C17.0651 31.5836 17.6283 31.5276 18.1838 31.4179C18.4414 30.118 18.3976 28.7674 18.0553 27.4823C17.6791 26.0704 16.9363 24.7318 15.8298 23.6224L9.78634 17.551L9.78407 17.5607L9.7835 17.5602ZM19.1857 18.9035L16.4987 16.2042L13.8126 18.9035L16.4987 21.6029L19.1857 18.9035ZM12.465 17.5524L16.4987 13.5L20.5327 17.5524L23.2532 14.8191L23.9253 15.4947C25.9762 17.555 27 20.2544 27 22.9537C27 25.653 25.9759 28.3524 23.9253 30.4127C22.7144 31.6293 21.2798 32.4877 19.7534 32.985L19.7483 32.9998L19.3892 33.0952C18.4451 33.3657 17.4722 33.5 16.4984 33.5C14.1714 33.5 11.8461 32.727 9.93105 31.1834L9.92167 31.1763C9.88528 31.1471 9.8486 31.1154 9.81221 31.086L9.79032 31.0666L9.74455 31.0277L9.70304 30.9909L9.63538 30.9323L9.58676 30.8883L9.55008 30.8566L9.48953 30.8029L9.46053 30.7764L9.38519 30.7078L9.35136 30.6761L9.28824 30.6153L9.26635 30.5956L9.18134 30.5127L9.16713 30.5007C9.13785 30.4716 9.10885 30.4422 9.07729 30.413L9.07473 30.4105C9.01417 30.3496 8.95362 30.2888 8.89562 30.2251L8.876 30.2059C8.82255 30.1497 8.77138 30.0937 8.72049 30.0354L8.68666 29.996C8.63804 29.9423 8.58943 29.8863 8.5411 29.8303C8.11151 29.3282 7.73538 28.7963 7.41469 28.2404L7.36892 28.1576C7.33508 28.0967 7.29841 28.033 7.26458 27.9722L7.20402 27.8577C7.14318 27.7431 7.08518 27.6263 7.03173 27.5117L6.97601 27.3943L6.92256 27.2775C6.9055 27.2381 6.88873 27.1995 6.87139 27.1604L6.8205 27.0407C6.78666 26.9627 6.75511 26.8822 6.72355 26.8016C6.69199 26.7214 6.66299 26.6434 6.63343 26.5628L6.58964 26.4434C6.56064 26.3629 6.53392 26.2823 6.51004 26.2021C6.48331 26.1215 6.45886 26.0387 6.4347 25.9581C6.42247 25.9167 6.41053 25.8776 6.39802 25.8364L6.36419 25.7142L6.33263 25.5896C6.32297 25.5485 6.31074 25.5068 6.30108 25.4657C6.28203 25.3825 6.26241 25.2997 6.24279 25.2169C6.23341 25.1752 6.2263 25.134 6.21635 25.0923C6.20669 25.0512 6.19901 25.0095 6.1919 24.9678L6.16774 24.8438L6.14585 24.7193C6.13874 24.6776 6.13106 24.6364 6.12623 24.5947L6.1069 24.4702C6.09922 24.4291 6.09439 24.3874 6.08956 24.3434C6.08501 24.3017 6.07989 24.2602 6.07534 24.2163C6.07051 24.1751 6.06567 24.1334 6.06056 24.0894L6.04833 23.9626C6.0435 23.9209 6.04122 23.8798 6.03611 23.8358L6.02672 23.7089L6.01962 23.5818C6.01706 23.5401 6.0145 23.4964 6.01222 23.455C6.00995 23.4133 6.00739 23.3696 6.00739 23.3282C6.00512 23.2865 6.00512 23.2428 6.00227 23.2011L6 23.0742V22.9474C6 20.2481 7.02406 17.5487 9.07473 15.4884L9.74711 14.8128L12.4679 17.5462L12.4653 17.551L12.465 17.5524ZM22.8987 28.7229C22.9373 28.6789 22.9788 28.6326 23.0172 28.5886L23.0417 28.5618C23.0755 28.5206 23.1122 28.4789 23.146 28.4372C23.3231 28.2204 23.4883 27.9985 23.6415 27.7694C23.668 27.7303 23.6947 27.6914 23.7191 27.6497C23.7845 27.55 23.8479 27.4475 23.9085 27.3449C23.9352 27.3009 23.9594 27.2572 23.9833 27.2132L24.0322 27.1278C24.0612 27.0767 24.0879 27.0259 24.1146 26.9742C24.1365 26.933 24.1584 26.8913 24.18 26.8473C24.2383 26.7328 24.294 26.6154 24.3449 26.4963C24.3887 26.4009 24.4299 26.3035 24.4689 26.2061L24.5075 26.1084C24.532 26.0427 24.5584 25.9764 24.58 25.9107L24.6144 25.813L24.6483 25.7133L24.6798 25.6133L24.7114 25.5131L24.7404 25.4131L24.7699 25.3131L24.7964 25.2129L24.8231 25.1129L24.8475 25.0126L24.8717 24.9107L24.8936 24.8081L24.9155 24.7056L24.9351 24.603L24.9547 24.5005L24.9712 24.3985L24.9886 24.2959L25.0028 24.1934L25.0176 24.0909L25.0301 23.9883L25.042 23.8863L25.0517 23.7838L25.0611 23.6812L25.0682 23.5787L25.0758 23.4761L25.0807 23.3742L25.0855 23.2691L25.0878 23.1671C25.0878 23.1328 25.0901 23.0985 25.0901 23.062V22.8426L25.0878 22.7646V22.7278L25.0855 22.6621V22.6304L25.0829 22.5744L25.0807 22.5232L25.0781 22.4741L25.0758 22.433L25.071 22.3424V22.3379L25.0639 22.2376L25.0613 22.2156L25.0542 22.1376L25.0517 22.1156L25.0446 22.0399L25.0423 22.0131L25.0346 21.9397L25.0323 21.9105L25.0247 21.8545L25.0176 21.8057L25.0105 21.7546L25.0056 21.7157L24.9979 21.6666L24.9837 21.5718L24.976 21.5229L24.9689 21.4766L24.9615 21.4326L24.9493 21.3715L24.9448 21.3424L24.9326 21.2815L24.9254 21.2398L24.9158 21.1936L24.9061 21.1421L24.8939 21.091L24.8797 21.0202L24.8743 21.003L24.8501 20.9053L24.843 20.8762L24.8282 20.8202L24.8134 20.7617L24.804 20.7271L24.7867 20.6663L24.7796 20.6371L24.7628 20.5737L24.7551 20.5517L24.7358 20.4837L24.731 20.4666C24.719 20.4249 24.7068 20.386 24.6943 20.3443L24.6824 20.3081L24.6653 20.2518L24.6556 20.2204L24.6338 20.1541L24.6241 20.1272L24.6048 20.069L24.5922 20.0321L24.5703 19.9736L24.5632 19.9541L24.5365 19.8833L24.5317 19.8736C24.4808 19.7393 24.4273 19.6077 24.3693 19.476L24.3568 19.4491L24.3278 19.3857L24.3204 19.3686L24.2863 19.2977L24.2841 19.2906C24.2354 19.1858 24.1846 19.0832 24.1311 18.9787L24.1234 18.9638L24.0873 18.8953L24.0796 18.881C24.0529 18.8296 24.0239 18.7784 23.9946 18.7273L23.9901 18.7176L23.9486 18.6442V18.6419C23.7348 18.2688 23.4903 17.9104 23.2157 17.5667L17.8156 22.9923C18.8132 24.192 19.5046 25.5671 19.8882 27.0059C20.2157 28.2324 20.3178 29.505 20.1989 30.7607C21.0604 30.3488 21.8661 29.7858 22.58 29.0685C22.6914 28.9565 22.7983 28.8443 22.9004 28.7297L22.8981 28.7203L22.8987 28.7229Z"/>
</mask>
<path d="M9.7835 17.5602V17.5624C9.47076 17.9549 9.19613 18.3697 8.96101 18.7987L8.91723 18.8767L8.91467 18.8793C8.85895 18.9864 8.80294 19.0938 8.75205 19.2006L8.74949 19.2032L8.71338 19.2789L8.70855 19.286L8.67187 19.3666V19.3691L8.63804 19.4471L8.63321 19.4614L8.60421 19.53L8.59454 19.5545C8.55076 19.6565 8.50954 19.7613 8.4686 19.8665L8.46377 19.8759L8.43931 19.9393L8.42737 19.9687L8.40292 20.0318L8.39582 20.0538L8.37393 20.1173L8.36454 20.1441L8.34265 20.2098L8.34009 20.2169C8.31564 20.2878 8.29404 20.3558 8.2747 20.4269L8.25765 20.4803L8.2457 20.522L8.2332 20.5637L8.21386 20.6317L8.20903 20.6488L8.19197 20.7145L8.18231 20.7491L8.16752 20.8074L8.15274 20.8636L8.14563 20.8928L8.12146 20.9905L8.11663 21.0076L8.10185 21.0784L8.08991 21.1296L8.08024 21.181L8.07057 21.2273L8.06347 21.269L8.05153 21.3298L8.04669 21.3589L8.03418 21.4204L8.02708 21.4644L8.01997 21.5106L8.01229 21.5595C8.00035 21.628 7.9904 21.696 7.98102 21.7669L7.97846 21.7914L7.97135 21.8425L7.96425 21.8985L7.96169 21.9277L7.95458 22.0011L7.95202 22.0279L7.94491 22.1036L7.94264 22.1256L7.93496 22.2036L7.93269 22.2256L7.92501 22.3256V22.3304L7.92046 22.4207L7.9179 22.4618L7.91535 22.5107L7.91307 22.5621L7.9108 22.6181V22.6498L7.90824 22.7155V22.752L7.90596 22.83V22.9468C7.90596 25.1586 8.74579 27.3678 10.4223 29.0554L10.4928 29.1233L10.5099 29.1405C10.5343 29.1625 10.5562 29.187 10.5807 29.209L10.5852 29.2139L10.6483 29.2722L10.6751 29.2967C12.3181 30.8207 14.41 31.5836 16.5018 31.5836C17.0651 31.5836 17.6283 31.5276 18.1838 31.4179C18.4414 30.118 18.3976 28.7674 18.0553 27.4823C17.6791 26.0704 16.9363 24.7318 15.8298 23.6224L9.78634 17.551L9.78407 17.5607L9.7835 17.5602ZM19.1857 18.9035L16.4987 16.2042L13.8126 18.9035L16.4987 21.6029L19.1857 18.9035ZM12.465 17.5524L16.4987 13.5L20.5327 17.5524L23.2532 14.8191L23.9253 15.4947C25.9762 17.555 27 20.2544 27 22.9537C27 25.653 25.9759 28.3524 23.9253 30.4127C22.7144 31.6293 21.2798 32.4877 19.7534 32.985L19.7483 32.9998L19.3892 33.0952C18.4451 33.3657 17.4722 33.5 16.4984 33.5C14.1714 33.5 11.8461 32.727 9.93105 31.1834L9.92167 31.1763C9.88528 31.1471 9.8486 31.1154 9.81221 31.086L9.79032 31.0666L9.74455 31.0277L9.70304 30.9909L9.63538 30.9323L9.58676 30.8883L9.55008 30.8566L9.48953 30.8029L9.46053 30.7764L9.38519 30.7078L9.35136 30.6761L9.28824 30.6153L9.26635 30.5956L9.18134 30.5127L9.16713 30.5007C9.13785 30.4716 9.10885 30.4422 9.07729 30.413L9.07473 30.4105C9.01417 30.3496 8.95362 30.2888 8.89562 30.2251L8.876 30.2059C8.82255 30.1497 8.77138 30.0937 8.72049 30.0354L8.68666 29.996C8.63804 29.9423 8.58943 29.8863 8.5411 29.8303C8.11151 29.3282 7.73538 28.7963 7.41469 28.2404L7.36892 28.1576C7.33508 28.0967 7.29841 28.033 7.26458 27.9722L7.20402 27.8577C7.14318 27.7431 7.08518 27.6263 7.03173 27.5117L6.97601 27.3943L6.92256 27.2775C6.9055 27.2381 6.88873 27.1995 6.87139 27.1604L6.8205 27.0407C6.78666 26.9627 6.75511 26.8822 6.72355 26.8016C6.69199 26.7214 6.66299 26.6434 6.63343 26.5628L6.58964 26.4434C6.56064 26.3629 6.53392 26.2823 6.51004 26.2021C6.48331 26.1215 6.45886 26.0387 6.4347 25.9581C6.42247 25.9167 6.41053 25.8776 6.39802 25.8364L6.36419 25.7142L6.33263 25.5896C6.32297 25.5485 6.31074 25.5068 6.30108 25.4657C6.28203 25.3825 6.26241 25.2997 6.24279 25.2169C6.23341 25.1752 6.2263 25.134 6.21635 25.0923C6.20669 25.0512 6.19901 25.0095 6.1919 24.9678L6.16774 24.8438L6.14585 24.7193C6.13874 24.6776 6.13106 24.6364 6.12623 24.5947L6.1069 24.4702C6.09922 24.4291 6.09439 24.3874 6.08956 24.3434C6.08501 24.3017 6.07989 24.2602 6.07534 24.2163C6.07051 24.1751 6.06567 24.1334 6.06056 24.0894L6.04833 23.9626C6.0435 23.9209 6.04122 23.8798 6.03611 23.8358L6.02672 23.7089L6.01962 23.5818C6.01706 23.5401 6.0145 23.4964 6.01222 23.455C6.00995 23.4133 6.00739 23.3696 6.00739 23.3282C6.00512 23.2865 6.00512 23.2428 6.00227 23.2011L6 23.0742V22.9474C6 20.2481 7.02406 17.5487 9.07473 15.4884L9.74711 14.8128L12.4679 17.5462L12.4653 17.551L12.465 17.5524ZM22.8987 28.7229C22.9373 28.6789 22.9788 28.6326 23.0172 28.5886L23.0417 28.5618C23.0755 28.5206 23.1122 28.4789 23.146 28.4372C23.3231 28.2204 23.4883 27.9985 23.6415 27.7694C23.668 27.7303 23.6947 27.6914 23.7191 27.6497C23.7845 27.55 23.8479 27.4475 23.9085 27.3449C23.9352 27.3009 23.9594 27.2572 23.9833 27.2132L24.0322 27.1278C24.0612 27.0767 24.0879 27.0259 24.1146 26.9742C24.1365 26.933 24.1584 26.8913 24.18 26.8473C24.2383 26.7328 24.294 26.6154 24.3449 26.4963C24.3887 26.4009 24.4299 26.3035 24.4689 26.2061L24.5075 26.1084C24.532 26.0427 24.5584 25.9764 24.58 25.9107L24.6144 25.813L24.6483 25.7133L24.6798 25.6133L24.7114 25.5131L24.7404 25.4131L24.7699 25.3131L24.7964 25.2129L24.8231 25.1129L24.8475 25.0126L24.8717 24.9107L24.8936 24.8081L24.9155 24.7056L24.9351 24.603L24.9547 24.5005L24.9712 24.3985L24.9886 24.2959L25.0028 24.1934L25.0176 24.0909L25.0301 23.9883L25.042 23.8863L25.0517 23.7838L25.0611 23.6812L25.0682 23.5787L25.0758 23.4761L25.0807 23.3742L25.0855 23.2691L25.0878 23.1671C25.0878 23.1328 25.0901 23.0985 25.0901 23.062V22.8426L25.0878 22.7646V22.7278L25.0855 22.6621V22.6304L25.0829 22.5744L25.0807 22.5232L25.0781 22.4741L25.0758 22.433L25.071 22.3424V22.3379L25.0639 22.2376L25.0613 22.2156L25.0542 22.1376L25.0517 22.1156L25.0446 22.0399L25.0423 22.0131L25.0346 21.9397L25.0323 21.9105L25.0247 21.8545L25.0176 21.8057L25.0105 21.7546L25.0056 21.7157L24.9979 21.6666L24.9837 21.5718L24.976 21.5229L24.9689 21.4766L24.9615 21.4326L24.9493 21.3715L24.9448 21.3424L24.9326 21.2815L24.9254 21.2398L24.9158 21.1936L24.9061 21.1421L24.8939 21.091L24.8797 21.0202L24.8743 21.003L24.8501 20.9053L24.843 20.8762L24.8282 20.8202L24.8134 20.7617L24.804 20.7271L24.7867 20.6663L24.7796 20.6371L24.7628 20.5737L24.7551 20.5517L24.7358 20.4837L24.731 20.4666C24.719 20.4249 24.7068 20.386 24.6943 20.3443L24.6824 20.3081L24.6653 20.2518L24.6556 20.2204L24.6338 20.1541L24.6241 20.1272L24.6048 20.069L24.5922 20.0321L24.5703 19.9736L24.5632 19.9541L24.5365 19.8833L24.5317 19.8736C24.4808 19.7393 24.4273 19.6077 24.3693 19.476L24.3568 19.4491L24.3278 19.3857L24.3204 19.3686L24.2863 19.2977L24.2841 19.2906C24.2354 19.1858 24.1846 19.0832 24.1311 18.9787L24.1234 18.9638L24.0873 18.8953L24.0796 18.881C24.0529 18.8296 24.0239 18.7784 23.9946 18.7273L23.9901 18.7176L23.9486 18.6442V18.6419C23.7348 18.2688 23.4903 17.9104 23.2157 17.5667L17.8156 22.9923C18.8132 24.192 19.5046 25.5671 19.8882 27.0059C20.2157 28.2324 20.3178 29.505 20.1989 30.7607C21.0604 30.3488 21.8661 29.7858 22.58 29.0685C22.6914 28.9565 22.7983 28.8443 22.9004 28.7297L22.8981 28.7203L22.8987 28.7229Z" fill="#C7D9A7"/>
<path d="M9.7835 17.5602V17.5624C9.47076 17.9549 9.19613 18.3697 8.96101 18.7987L8.91723 18.8767L8.91467 18.8793C8.85895 18.9864 8.80294 19.0938 8.75205 19.2006L8.74949 19.2032L8.71338 19.2789L8.70855 19.286L8.67187 19.3666V19.3691L8.63804 19.4471L8.63321 19.4614L8.60421 19.53L8.59454 19.5545C8.55076 19.6565 8.50954 19.7613 8.4686 19.8665L8.46377 19.8759L8.43931 19.9393L8.42737 19.9687L8.40292 20.0318L8.39582 20.0538L8.37393 20.1173L8.36454 20.1441L8.34265 20.2098L8.34009 20.2169C8.31564 20.2878 8.29404 20.3558 8.2747 20.4269L8.25765 20.4803L8.2457 20.522L8.2332 20.5637L8.21386 20.6317L8.20903 20.6488L8.19197 20.7145L8.18231 20.7491L8.16752 20.8074L8.15274 20.8636L8.14563 20.8928L8.12146 20.9905L8.11663 21.0076L8.10185 21.0784L8.08991 21.1296L8.08024 21.181L8.07057 21.2273L8.06347 21.269L8.05153 21.3298L8.04669 21.3589L8.03418 21.4204L8.02708 21.4644L8.01997 21.5106L8.01229 21.5595C8.00035 21.628 7.9904 21.696 7.98102 21.7669L7.97846 21.7914L7.97135 21.8425L7.96425 21.8985L7.96169 21.9277L7.95458 22.0011L7.95202 22.0279L7.94491 22.1036L7.94264 22.1256L7.93496 22.2036L7.93269 22.2256L7.92501 22.3256V22.3304L7.92046 22.4207L7.9179 22.4618L7.91535 22.5107L7.91307 22.5621L7.9108 22.6181V22.6498L7.90824 22.7155V22.752L7.90596 22.83V22.9468C7.90596 25.1586 8.74579 27.3678 10.4223 29.0554L10.4928 29.1233L10.5099 29.1405C10.5343 29.1625 10.5562 29.187 10.5807 29.209L10.5852 29.2139L10.6483 29.2722L10.6751 29.2967C12.3181 30.8207 14.41 31.5836 16.5018 31.5836C17.0651 31.5836 17.6283 31.5276 18.1838 31.4179C18.4414 30.118 18.3976 28.7674 18.0553 27.4823C17.6791 26.0704 16.9363 24.7318 15.8298 23.6224L9.78634 17.551L9.78407 17.5607L9.7835 17.5602ZM19.1857 18.9035L16.4987 16.2042L13.8126 18.9035L16.4987 21.6029L19.1857 18.9035ZM12.465 17.5524L16.4987 13.5L20.5327 17.5524L23.2532 14.8191L23.9253 15.4947C25.9762 17.555 27 20.2544 27 22.9537C27 25.653 25.9759 28.3524 23.9253 30.4127C22.7144 31.6293 21.2798 32.4877 19.7534 32.985L19.7483 32.9998L19.3892 33.0952C18.4451 33.3657 17.4722 33.5 16.4984 33.5C14.1714 33.5 11.8461 32.727 9.93105 31.1834L9.92167 31.1763C9.88528 31.1471 9.8486 31.1154 9.81221 31.086L9.79032 31.0666L9.74455 31.0277L9.70304 30.9909L9.63538 30.9323L9.58676 30.8883L9.55008 30.8566L9.48953 30.8029L9.46053 30.7764L9.38519 30.7078L9.35136 30.6761L9.28824 30.6153L9.26635 30.5956L9.18134 30.5127L9.16713 30.5007C9.13785 30.4716 9.10885 30.4422 9.07729 30.413L9.07473 30.4105C9.01417 30.3496 8.95362 30.2888 8.89562 30.2251L8.876 30.2059C8.82255 30.1497 8.77138 30.0937 8.72049 30.0354L8.68666 29.996C8.63804 29.9423 8.58943 29.8863 8.5411 29.8303C8.11151 29.3282 7.73538 28.7963 7.41469 28.2404L7.36892 28.1576C7.33508 28.0967 7.29841 28.033 7.26458 27.9722L7.20402 27.8577C7.14318 27.7431 7.08518 27.6263 7.03173 27.5117L6.97601 27.3943L6.92256 27.2775C6.9055 27.2381 6.88873 27.1995 6.87139 27.1604L6.8205 27.0407C6.78666 26.9627 6.75511 26.8822 6.72355 26.8016C6.69199 26.7214 6.66299 26.6434 6.63343 26.5628L6.58964 26.4434C6.56064 26.3629 6.53392 26.2823 6.51004 26.2021C6.48331 26.1215 6.45886 26.0387 6.4347 25.9581C6.42247 25.9167 6.41053 25.8776 6.39802 25.8364L6.36419 25.7142L6.33263 25.5896C6.32297 25.5485 6.31074 25.5068 6.30108 25.4657C6.28203 25.3825 6.26241 25.2997 6.24279 25.2169C6.23341 25.1752 6.2263 25.134 6.21635 25.0923C6.20669 25.0512 6.19901 25.0095 6.1919 24.9678L6.16774 24.8438L6.14585 24.7193C6.13874 24.6776 6.13106 24.6364 6.12623 24.5947L6.1069 24.4702C6.09922 24.4291 6.09439 24.3874 6.08956 24.3434C6.08501 24.3017 6.07989 24.2602 6.07534 24.2163C6.07051 24.1751 6.06567 24.1334 6.06056 24.0894L6.04833 23.9626C6.0435 23.9209 6.04122 23.8798 6.03611 23.8358L6.02672 23.7089L6.01962 23.5818C6.01706 23.5401 6.0145 23.4964 6.01222 23.455C6.00995 23.4133 6.00739 23.3696 6.00739 23.3282C6.00512 23.2865 6.00512 23.2428 6.00227 23.2011L6 23.0742V22.9474C6 20.2481 7.02406 17.5487 9.07473 15.4884L9.74711 14.8128L12.4679 17.5462L12.4653 17.551L12.465 17.5524ZM22.8987 28.7229C22.9373 28.6789 22.9788 28.6326 23.0172 28.5886L23.0417 28.5618C23.0755 28.5206 23.1122 28.4789 23.146 28.4372C23.3231 28.2204 23.4883 27.9985 23.6415 27.7694C23.668 27.7303 23.6947 27.6914 23.7191 27.6497C23.7845 27.55 23.8479 27.4475 23.9085 27.3449C23.9352 27.3009 23.9594 27.2572 23.9833 27.2132L24.0322 27.1278C24.0612 27.0767 24.0879 27.0259 24.1146 26.9742C24.1365 26.933 24.1584 26.8913 24.18 26.8473C24.2383 26.7328 24.294 26.6154 24.3449 26.4963C24.3887 26.4009 24.4299 26.3035 24.4689 26.2061L24.5075 26.1084C24.532 26.0427 24.5584 25.9764 24.58 25.9107L24.6144 25.813L24.6483 25.7133L24.6798 25.6133L24.7114 25.5131L24.7404 25.4131L24.7699 25.3131L24.7964 25.2129L24.8231 25.1129L24.8475 25.0126L24.8717 24.9107L24.8936 24.8081L24.9155 24.7056L24.9351 24.603L24.9547 24.5005L24.9712 24.3985L24.9886 24.2959L25.0028 24.1934L25.0176 24.0909L25.0301 23.9883L25.042 23.8863L25.0517 23.7838L25.0611 23.6812L25.0682 23.5787L25.0758 23.4761L25.0807 23.3742L25.0855 23.2691L25.0878 23.1671C25.0878 23.1328 25.0901 23.0985 25.0901 23.062V22.8426L25.0878 22.7646V22.7278L25.0855 22.6621V22.6304L25.0829 22.5744L25.0807 22.5232L25.0781 22.4741L25.0758 22.433L25.071 22.3424V22.3379L25.0639 22.2376L25.0613 22.2156L25.0542 22.1376L25.0517 22.1156L25.0446 22.0399L25.0423 22.0131L25.0346 21.9397L25.0323 21.9105L25.0247 21.8545L25.0176 21.8057L25.0105 21.7546L25.0056 21.7157L24.9979 21.6666L24.9837 21.5718L24.976 21.5229L24.9689 21.4766L24.9615 21.4326L24.9493 21.3715L24.9448 21.3424L24.9326 21.2815L24.9254 21.2398L24.9158 21.1936L24.9061 21.1421L24.8939 21.091L24.8797 21.0202L24.8743 21.003L24.8501 20.9053L24.843 20.8762L24.8282 20.8202L24.8134 20.7617L24.804 20.7271L24.7867 20.6663L24.7796 20.6371L24.7628 20.5737L24.7551 20.5517L24.7358 20.4837L24.731 20.4666C24.719 20.4249 24.7068 20.386 24.6943 20.3443L24.6824 20.3081L24.6653 20.2518L24.6556 20.2204L24.6338 20.1541L24.6241 20.1272L24.6048 20.069L24.5922 20.0321L24.5703 19.9736L24.5632 19.9541L24.5365 19.8833L24.5317 19.8736C24.4808 19.7393 24.4273 19.6077 24.3693 19.476L24.3568 19.4491L24.3278 19.3857L24.3204 19.3686L24.2863 19.2977L24.2841 19.2906C24.2354 19.1858 24.1846 19.0832 24.1311 18.9787L24.1234 18.9638L24.0873 18.8953L24.0796 18.881C24.0529 18.8296 24.0239 18.7784 23.9946 18.7273L23.9901 18.7176L23.9486 18.6442V18.6419C23.7348 18.2688 23.4903 17.9104 23.2157 17.5667L17.8156 22.9923C18.8132 24.192 19.5046 25.5671 19.8882 27.0059C20.2157 28.2324 20.3178 29.505 20.1989 30.7607C21.0604 30.3488 21.8661 29.7858 22.58 29.0685C22.6914 28.9565 22.7983 28.8443 22.9004 28.7297L22.8981 28.7203L22.8987 28.7229Z" stroke="#C7D9A7" stroke-linejoin="bevel" mask="url(#path-2-outside-1_2911_1843)"/>
</g>
</g>
</svg>
