<svg width="43" height="43" viewBox="0 0 43 43" fill="none" xmlns="http://www.w3.org/2000/svg">
<g id="Group 124853">
<g id="Group">
<path id="Vector" d="M20.8484 22.2726L20.8482 22.2724C20.7271 22.1704 19.3343 20.9772 17.9699 19.0825C16.6076 17.1909 15.2549 14.5742 15.2549 11.6304C15.2549 8.6867 16.6078 6.06997 17.9703 4.17834C19.3349 2.28373 20.728 1.09051 20.849 0.98845C21.2256 0.670517 21.7765 0.670517 22.1531 0.98845L20.8484 22.2726ZM20.8484 22.2726C21.0364 22.4309 21.2683 22.5107 21.5002 22.5107H21.501C21.7329 22.5107 21.9649 22.4309 22.1529 22.2726L22.1531 22.2724C22.2741 22.1704 23.6669 20.9772 25.0314 19.0825C26.3937 17.1909 27.7464 14.5742 27.7464 11.6304C27.7464 8.68672 26.3937 6.06999 25.0314 4.17836C23.6674 2.28445 22.2751 1.09142 22.1532 0.988564L21.9919 1.17956M20.8484 22.2726L21.9919 22.0813M21.9919 22.0813C22.2169 21.8916 27.4964 17.3683 27.4964 11.6304C27.4964 5.89255 22.2169 1.36933 21.9919 1.17956M21.9919 22.0813C21.8502 22.2006 21.6756 22.2607 21.501 22.2607H21.5002C21.3257 22.2607 21.1511 22.2006 21.0094 22.0813H21.9919ZM21.9919 1.17956C21.7084 0.940147 21.2936 0.940147 21.0102 1.17956H21.9919ZM17.2755 11.6304C17.2755 9.66068 18.0564 7.80459 19.0052 6.2789C19.8693 4.8895 20.8631 3.78964 21.5004 3.14882C22.1377 3.78892 23.1311 4.88891 23.9947 6.27853C24.943 7.80452 25.7233 9.66103 25.7233 11.6304C25.7233 13.5998 24.9425 15.4557 23.9936 16.9814C23.1295 18.3708 22.1358 19.4708 21.4984 20.112C20.861 19.4719 19.8677 18.3721 19.0042 16.9827C18.0558 15.4568 17.2755 13.6003 17.2755 11.6304Z" fill="#FDCDC1" stroke="#FDCDC1" stroke-width="0.5"/>
<path id="Vector_2" d="M20.8484 42.0148L20.8482 42.0146C20.7271 41.9126 19.3343 40.7193 17.9699 38.8247C16.6076 36.9331 15.2549 34.3164 15.2549 31.3726C15.2549 28.4289 16.6076 25.8122 17.9699 23.9205C19.3338 22.0266 20.7261 20.8336 20.848 20.7308L20.8484 42.0148ZM20.8484 42.0148C21.0364 42.173 21.2683 42.2529 21.5002 42.2529C21.7321 42.2529 21.9641 42.173 22.1521 42.0148L22.1523 42.0146C22.2733 41.9126 23.6661 40.7193 25.0306 38.8247C26.3929 36.9331 27.7456 34.3164 27.7456 31.3726C27.7456 28.4289 26.3929 25.8122 25.0306 23.9205C23.6666 22.0266 22.2743 20.8336 22.1524 20.7308L21.9911 20.9217M20.8484 42.0148L21.9911 41.8235M21.9911 41.8235C22.2161 41.6338 27.4956 37.1105 27.4956 31.3726C27.4956 25.6347 22.2161 21.1115 21.9911 20.9217M21.9911 41.8235C21.8494 41.9428 21.6748 42.0029 21.5002 42.0029C21.3257 42.0029 21.1511 41.9428 21.0094 41.8235H21.9911ZM21.9911 20.9217C21.7076 20.6823 21.2928 20.6823 21.0094 20.9217L22.1523 20.7306M21.9911 20.9217L22.1523 20.7306M22.1523 20.7306C21.7757 20.4127 21.2248 20.4127 20.8482 20.7306H22.1523ZM17.2763 31.3726C17.2763 29.4037 18.057 27.548 19.0056 26.0224C19.8695 24.6332 20.8629 23.5332 21.5002 22.892C22.1378 23.5335 23.1313 24.6333 23.9951 26.0224C24.9437 27.5478 25.7241 29.4033 25.7241 31.3726C25.7241 33.342 24.9433 35.1979 23.9944 36.7236C23.1303 38.113 22.1366 39.213 21.4992 39.8542C20.8619 39.2141 19.8686 38.1139 19.005 36.7243C18.0566 35.1982 17.2763 33.3416 17.2763 31.3726Z" fill="#FDCDC1" stroke="#FDCDC1" stroke-width="0.5"/>
</g>
<g id="Group_2">
<path id="Vector_3" d="M20.7258 22.1548C20.4078 21.7782 20.4078 21.2273 20.7258 20.8507C20.8279 20.7297 22.0212 19.337 23.9159 17.9726C25.8077 16.6104 28.4246 15.2578 31.3685 15.2578C34.3124 15.2578 36.9293 16.6104 38.8211 17.9726C40.7151 19.3365 41.9082 20.7286 42.0111 20.8506L20.7258 22.1548ZM20.7258 22.1548C20.8279 22.2758 22.0212 23.6685 23.9159 25.0329M20.7258 22.1548L23.9159 25.0329M23.9159 25.0329C25.8077 26.3951 28.4246 27.7477 31.3685 27.7477M23.9159 25.0329L31.3685 27.7477M31.3685 27.7477C34.3124 27.7477 36.9293 26.3951 38.8211 25.0329C40.7151 23.669 41.9082 22.2768 42.0111 22.1549M31.3685 27.7477L42.0111 22.1549M42.0111 22.1549C42.3291 21.7783 42.3292 21.2273 42.0112 20.8507L42.0111 22.1549ZM31.3685 25.7263C29.3986 25.7263 27.5423 24.9455 26.0165 23.9967C24.6271 23.1327 23.5271 22.1391 22.8863 21.5018C23.5264 20.8645 24.6267 19.8712 26.0165 19.0077C27.5427 18.0594 29.3993 17.2792 31.3685 17.2792C33.3376 17.2792 35.1934 18.0596 36.7191 19.0081C38.1085 19.8718 39.2085 20.8652 39.8497 21.5027C39.2082 22.1403 38.1085 23.1337 36.7194 23.9974C35.194 24.9459 33.3384 25.7263 31.3685 25.7263Z" fill="#FDCDC1" stroke="#FDCDC1" stroke-width="0.5"/>
<path id="Vector_4" d="M0.988473 22.1548C0.670509 21.7782 0.670509 21.2273 0.988473 20.8507C1.09056 20.7297 2.28385 19.337 4.1786 17.9726C6.07036 16.6104 8.68726 15.2578 11.6312 15.2578C14.5751 15.2578 17.192 16.6104 19.0838 17.9726C20.9778 19.3365 22.1709 20.7286 22.2738 20.8506L0.988473 22.1548ZM0.988473 22.1548C1.09056 22.2758 2.28385 23.6685 4.1786 25.0329M0.988473 22.1548L4.1786 25.0329M4.1786 25.0329C6.07036 26.3951 8.68726 27.7477 11.6312 27.7477M4.1786 25.0329L11.6312 27.7477M11.6312 27.7477C14.5751 27.7477 17.192 26.3951 19.0838 25.0329C20.9778 23.669 22.1709 22.2768 22.2738 22.1549M11.6312 27.7477L22.2738 22.1549M22.2738 22.1549C22.5918 21.7783 22.5919 21.2273 22.2739 20.8507L22.2738 22.1549ZM11.6312 25.7263C9.66205 25.7263 7.80622 24.9459 6.28052 23.9974C4.8912 23.1337 3.79115 22.1403 3.14995 21.5028C3.79145 20.8652 4.89117 19.8718 6.28024 19.008C7.80561 18.0596 9.66124 17.2792 11.6312 17.2792C13.6011 17.2792 15.4573 18.06 16.9831 19.0087C18.3726 19.8728 19.4725 20.8664 20.1134 21.5037C19.4732 22.141 18.373 23.1343 16.9832 23.9978C15.457 24.9461 13.6003 25.7263 11.6312 25.7263Z" fill="#FDCDC1" stroke="#FDCDC1" stroke-width="0.5"/>
</g>
<g id="Group_3">
<path id="Vector_5" d="M6.54095 7.45295C6.53476 7.52532 6.4757 8.29566 6.63751 9.26988C6.7988 10.2409 7.18447 11.4443 8.09149 12.3512C8.69076 12.9505 10.0483 13.917 12.5339 13.917C12.7952 13.917 12.9629 13.9041 12.9906 13.9016C13.4815 13.8598 13.8705 13.4706 13.9121 12.9796M6.54095 7.45295L6.79004 7.47425L6.54093 7.45322C6.54094 7.45313 6.54094 7.45304 6.54095 7.45295ZM6.54095 7.45295C6.58254 6.96194 6.97154 6.57282 7.46248 6.53099C7.49012 6.52852 7.65787 6.51562 7.91912 6.51562C10.4048 6.51562 11.7623 7.48213 12.3616 8.08137C13.2686 8.98832 13.6543 10.1917 13.8156 11.1627C13.9774 12.1369 13.9183 12.9073 13.9121 12.9796M13.9121 12.9796L13.663 12.9583L13.9121 12.9794C13.9121 12.9795 13.9121 12.9795 13.9121 12.9796ZM8.32854 8.55064C8.409 8.55578 8.49377 8.56267 8.58188 8.57173C8.57284 8.48378 8.56594 8.39902 8.56076 8.31839C8.47244 8.30993 8.38821 8.30362 8.3091 8.29899C8.31378 8.37828 8.32011 8.4625 8.32854 8.55064ZM11.8704 11.8606C11.8794 11.9486 11.8863 12.0333 11.8915 12.114C11.9798 12.1225 12.064 12.1289 12.1432 12.1336C12.1385 12.0543 12.1321 11.9701 12.1237 11.8819C12.0432 11.8767 11.9585 11.8697 11.8704 11.8606Z" fill="#FDCDC1" stroke="#FDCDC1" stroke-width="0.5"/>
<path id="Vector_6" d="M29.0995 30.0076C29.0934 30.08 29.0343 30.8504 29.1961 31.8246C29.3574 32.7956 29.7431 33.999 30.6501 34.9059C31.2494 35.5051 32.6069 36.4716 35.0925 36.4716C35.3538 36.4716 35.5215 36.4587 35.5492 36.4563C36.0401 36.4145 36.4291 36.0253 36.4707 35.5343M29.0995 30.0076L29.3486 30.0289L29.0995 30.0079C29.0995 30.0078 29.0995 30.0077 29.0995 30.0076ZM29.0995 30.0076C29.1411 29.5166 29.5301 29.1275 30.0211 29.0857C30.0487 29.0832 30.2165 29.0703 30.4777 29.0703C32.9634 29.0703 34.3209 30.0368 34.9202 30.6361C35.8272 31.543 36.2129 32.7464 36.3741 33.7174C36.536 34.6916 36.4769 35.462 36.4707 35.5343M36.4707 35.5343L36.2216 35.513L36.4707 35.534C36.4707 35.5341 36.4707 35.5342 36.4707 35.5343ZM30.8871 31.1054C30.9676 31.1106 31.0524 31.1175 31.1405 31.1267C31.1315 31.0387 31.1245 30.9539 31.1194 30.8733C31.031 30.8648 30.9468 30.8584 30.8677 30.8537C30.8724 30.933 30.8787 31.0172 30.8871 31.1054ZM34.4289 34.4153C34.438 34.5033 34.4449 34.588 34.4501 34.6687C34.5384 34.6772 34.6226 34.6836 34.7018 34.6883C34.6971 34.609 34.6907 34.5248 34.6823 34.4366C34.6018 34.4314 34.5171 34.4244 34.4289 34.4153Z" fill="#FDCDC1" stroke="#FDCDC1" stroke-width="0.5"/>
</g>
<g id="Group_4">
<path id="Vector_7" d="M30.0134 13.9016C30.0414 13.9041 30.209 13.917 30.4699 13.917C32.9556 13.917 34.3131 12.9505 34.9124 12.3512C35.8194 11.4443 36.205 10.2409 36.3663 9.26988C36.528 8.29628 36.4692 7.52629 36.4629 7.45309M30.0134 13.9016L35.5406 6.53092C35.5408 6.53094 35.541 6.53096 35.5413 6.53098M30.0134 13.9016C29.5223 13.8598 29.1332 13.4706 29.0917 12.9795M30.0134 13.9016L35.5413 6.53098M36.4629 7.45309C36.4629 7.45313 36.4629 7.45318 36.4629 7.45322L36.2138 7.47425L36.4629 7.45295C36.4629 7.453 36.4629 7.45304 36.4629 7.45309ZM36.4629 7.45309C36.4214 6.96198 36.0323 6.57278 35.5413 6.53098M35.5413 6.53098C35.5134 6.5285 35.3457 6.51562 35.0847 6.51562C32.599 6.51562 31.2415 7.48213 30.6423 8.08137C29.7353 8.98832 29.3496 10.1917 29.1883 11.1627C29.0266 12.1363 29.0855 12.9063 29.0917 12.9795M29.0917 12.9795C29.0917 12.9795 29.0917 12.9794 29.0917 12.9794L29.3408 12.9583L29.0917 12.9796C29.0917 12.9796 29.0917 12.9795 29.0917 12.9795ZM32.072 9.51189L32.0721 9.5118C32.7042 8.87913 33.6791 8.64958 34.419 8.57285C34.341 9.31963 34.1099 10.295 33.4826 10.9223L33.4825 10.9224C32.8504 11.5551 31.8755 11.7846 31.1356 11.8613C31.2137 11.1146 31.4447 10.1392 32.072 9.51189Z" fill="#FDCDC1" stroke="#FDCDC1" stroke-width="0.5"/>
<path id="Vector_8" d="M6.53313 35.5342C6.57465 36.0253 6.9637 36.4145 7.45471 36.4563M6.53313 35.5342C6.52687 35.461 6.46799 34.691 6.6297 33.7174C6.79098 32.7464 7.17666 31.543 8.08367 30.6361C8.68295 30.0368 10.0404 29.0703 12.5261 29.0703C12.7871 29.0703 12.9548 29.0832 12.9827 29.0857M6.53313 35.5342C6.53313 35.5342 6.53313 35.5343 6.53314 35.5343L6.78223 35.513L6.53312 35.534C6.53312 35.5341 6.53312 35.5341 6.53313 35.5342ZM7.45471 36.4563L12.9609 29.3347M7.45471 36.4563C7.48247 36.4588 7.65019 36.4716 7.91131 36.4716C10.397 36.4716 11.7545 35.5051 12.3538 34.9059C13.2608 33.999 13.6465 32.7956 13.8077 31.8246C13.9694 30.851 13.9106 30.081 13.9043 30.0078M7.45471 36.4563C7.45496 36.4563 7.45521 36.4563 7.45547 36.4563L13.6552 30.0289M12.9827 29.0857C12.983 29.0857 12.9833 29.0857 12.9836 29.0858L12.9609 29.3347M12.9827 29.0857C12.9824 29.0857 12.9822 29.0856 12.982 29.0856L12.9609 29.3347M12.9827 29.0857C13.4737 29.1275 13.8628 29.5167 13.9043 30.0078M12.9609 29.3347C13.3309 29.366 13.624 29.659 13.6552 30.0289M13.9043 30.0078C13.9043 30.0077 13.9043 30.0077 13.9043 30.0076L13.6552 30.0289M13.9043 30.0078C13.9043 30.0078 13.9043 30.0079 13.9043 30.0079L13.6552 30.0289M9.51344 32.0658L9.51353 32.0657C10.1459 31.4327 11.1208 31.2033 11.8612 31.1266C11.7832 31.8734 11.5521 32.8489 10.9248 33.4762C10.2918 34.1092 9.31497 34.3393 8.5749 34.4155C8.65157 33.6708 8.88185 32.6973 9.51344 32.0658Z" fill="#FDCDC1" stroke="#FDCDC1" stroke-width="0.5"/>
</g>
</g>
</svg>
