<svg width="47" height="45" viewBox="0 0 47 45" fill="none" xmlns="http://www.w3.org/2000/svg">
<g id="icons-small">
<path id="Vector (Stroke)" fill-rule="evenodd" clip-rule="evenodd" d="M19.4016 13.4008C18.3968 15.3014 17.0148 16.7313 15.8581 17.9282C15.7839 18.0049 15.7107 18.0807 15.6386 18.1556C13.53 20.344 12.21 23.7829 12.21 26.8398C12.21 32.5887 16.8214 37.2608 22.4957 37.2608C28.17 37.2608 32.7814 32.5887 32.7814 26.8398C32.7814 25.4736 32.3012 23.7035 31.6155 22.0557C30.9674 20.4983 30.1359 19.0501 29.3529 18.1556C28.5227 19.5652 27.7916 20.5935 27.1258 21.3092C27.0458 21.3951 26.9668 21.4765 26.8887 21.5536C25.6849 22.7406 24.6902 22.8861 23.6897 22.4255C23.2969 22.2447 22.9033 21.9705 22.4957 21.6292C24.1373 19.1677 24.2069 16.2762 23.6454 13.7401C23.0341 10.9794 21.6749 8.63975 20.7814 7.7345C20.7814 10.0157 20.2151 11.8624 19.4016 13.4008ZM27.8271 14.4579C27.7369 13.754 27.6065 13.0807 27.4514 12.45C26.6811 9.31765 25.1093 6.42514 23.6283 4.92462C22.4885 3.76979 20.7639 3.41795 19.2628 4.034C17.7617 4.65004 16.7814 6.11189 16.7814 7.7345C16.7814 11.2047 14.9639 13.091 12.8001 15.3366L12.7581 15.3802C9.89156 18.3552 8.21001 22.8065 8.21001 26.8398C8.21001 34.7484 14.5632 41.2608 22.4957 41.2608C30.4283 41.2608 36.7814 34.7484 36.7814 26.8398C36.7814 24.7659 36.117 22.5008 35.3756 20.6818C34.6257 18.842 33.5658 16.8955 32.3628 15.5211C31.5169 14.5547 30.2585 14.0532 28.9799 14.173C28.5786 14.2106 28.1907 14.3079 27.8271 14.4579Z" fill="#C7D9A7"/>
</g>
</svg>
