<svg width="45" height="29" viewBox="0 0 45 29" fill="none" xmlns="http://www.w3.org/2000/svg">
<g id="Group 124856">
<g id="Group">
<path id="Vector" d="M21.9379 26.8077L21.9371 26.8071L21.9361 26.8064C21.8394 26.7329 19.9781 25.3197 18.0959 23.0295C15.5577 19.9415 14.1963 16.7042 14.1963 13.6669C14.1963 10.6296 15.5577 7.39236 18.0959 4.30435C19.9846 2.00633 21.8522 0.590396 21.9383 0.525797M21.9379 26.8077L22.0883 0.72583M21.9379 26.8077C22.1053 26.9337 22.3045 26.9977 22.5042 26.9977C22.7037 26.9977 22.9028 26.9338 23.07 26.808M21.9379 26.8077L22.0883 26.608C22.2117 26.7009 22.3579 26.7477 22.5042 26.7477C22.6504 26.7477 22.7967 26.7009 22.9201 26.608M21.9383 0.525797L22.0883 0.72583M21.9383 0.525797C21.9382 0.525927 21.938 0.526057 21.9378 0.526187L22.0883 0.72583M21.9383 0.525797C22.2748 0.272522 22.7342 0.272651 23.0706 0.526187L23.0713 0.526729L23.0713 0.52673L23.0722 0.527442C23.1688 0.600774 25.0301 2.01401 26.9124 4.30434M22.0883 0.72583C22.3358 0.539307 22.6726 0.539307 22.9201 0.72583L22.9211 0.72658C23.0121 0.795673 24.8554 2.19517 26.7193 4.46309M26.9124 4.30434L26.7193 4.46309M26.9124 4.30434C26.9124 4.30435 26.9124 4.30435 26.9124 4.30435L26.7193 4.46309M26.9124 4.30434C29.4506 7.39235 30.8121 10.6296 30.8121 13.6669C30.8121 16.7042 29.4506 19.9415 26.9124 23.0295M26.7193 4.46309C29.2331 7.52146 30.5621 10.7044 30.5621 13.6669C30.5621 16.6294 29.2331 19.8123 26.7193 22.8707M26.7193 22.8707L26.9124 23.0295M26.7193 22.8707C24.8481 25.1475 22.9976 26.5498 22.9201 26.608M26.7193 22.8707L26.9124 23.0295C26.9124 23.0295 26.9124 23.0295 26.9124 23.0295M26.9124 23.0295C25.0238 25.3275 23.1562 26.7434 23.07 26.808M22.9201 26.608L23.0705 26.8077C23.0703 26.8078 23.0702 26.8079 23.07 26.808M22.9201 26.608L23.07 26.808M16.0998 13.6669C16.0998 11.0101 17.3503 8.5176 18.8103 6.51664C20.1712 4.65139 21.6973 3.23637 22.5042 2.54498C23.3114 3.23634 24.8373 4.65153 26.198 6.5169C27.6577 8.51795 28.9078 11.0105 28.9078 13.6669C28.9078 16.3233 27.6573 18.8158 26.1974 20.8169C24.8364 22.6823 23.3102 24.0975 22.5033 24.7889C21.6965 24.0986 20.1707 22.6835 18.8099 20.818C17.3501 18.8168 16.0998 16.3237 16.0998 13.6669Z" fill="#FDCDC1" stroke="#FDCDC1" stroke-width="0.5"/>
<path id="Vector_2" d="M1.97174 18.8118L1.97174 18.8118C3.27355 22.6174 5.30233 25.4678 7.86054 27.0195C9.66737 28.1155 11.8669 28.665 14.3875 28.665C18.8 28.665 22.7058 26.9956 22.8762 26.922L22.8768 26.9217C23.2609 26.7546 23.4908 26.3553 23.4507 25.9376C23.44 25.8194 23.2007 23.4591 22.2335 20.6323C20.9317 16.8266 18.9029 13.9763 16.3447 12.4246C14.5378 11.3278 12.3383 10.7783 9.81778 10.7783C5.4052 10.7783 1.49948 12.4477 1.32903 12.5213L1.32846 12.5216C0.944015 12.6888 0.7141 13.0886 0.754603 13.5067L0.754608 13.5067C0.765163 13.6155 1.00264 15.9785 1.97174 18.8118ZM2.74866 14.0415C4.0047 13.5883 6.82459 12.7124 9.8163 12.7124C12.0108 12.7124 13.8745 13.1791 15.3681 14.0852C17.6002 15.4395 19.0586 17.8095 19.9973 20.1155C20.8747 22.2709 21.2861 24.3413 21.4549 25.4008C20.1992 25.854 17.3789 26.7302 14.3867 26.7302C12.1929 26.7302 10.3292 26.2642 8.83569 25.3581C6.60356 24.0038 5.14512 21.6338 4.20647 19.3278C3.32882 17.1717 2.91736 15.1008 2.74866 14.0415Z" fill="#FDCDC1" stroke="#FDCDC1" stroke-width="0.5"/>
<path id="Vector_3" d="M7.54401 11.7692L7.544 11.7693C7.51057 12.2951 7.89966 12.7602 8.42806 12.7971C8.45436 12.7994 8.47862 12.7994 8.49213 12.7994L8.49454 12.7994C8.9967 12.7994 9.411 12.4016 9.44358 11.8949L9.44358 11.8949C9.60906 9.31825 10.288 7.0124 10.664 5.90284C11.7027 6.06885 13.7228 6.4751 15.8289 7.35543C18.0875 8.29946 20.4148 9.77593 21.7562 12.0555L21.7564 12.0558C22.0263 12.513 22.6128 12.6648 23.0658 12.3863L23.0662 12.3861C23.5156 12.1088 23.6569 11.5171 23.3899 11.0621L23.3897 11.0619C21.8574 8.45738 19.0569 6.40008 15.3232 5.09121C12.545 4.11683 10.2306 3.88759 10.124 3.87753L10.1232 3.87746C9.70598 3.83934 9.31512 4.08076 9.15613 4.47081L9.15606 4.47099C9.09774 4.6144 7.79626 7.84557 7.54401 11.7692Z" fill="#FDCDC1" stroke="#FDCDC1" stroke-width="0.5"/>
</g>
<g id="Group_2">
<path id="Vector_4" d="M30.6193 28.6635H30.8693V28.661C33.2848 28.6257 35.3987 28.0769 37.1455 27.0173C39.7037 25.4656 41.7325 22.6152 43.0343 18.8096L43.0343 18.8095C44.0026 15.977 44.2408 13.6133 44.2514 13.5054L44.2514 13.5052C44.2919 13.0875 44.0623 12.6865 43.677 12.5199L43.677 12.5199C43.5065 12.4462 39.6008 10.7769 35.1882 10.7769C32.6676 10.7769 30.4681 11.3271 28.6613 12.4231C26.1031 13.9748 24.0743 16.8252 22.7725 20.6308L22.7725 20.6308C21.8042 23.4634 21.566 25.8271 21.5554 25.9349L21.5554 25.9352C21.5149 26.3529 21.7445 26.7539 22.1298 26.9205L22.1298 26.9205C22.3003 26.9942 26.206 28.6635 30.6186 28.6635H30.6193ZM23.549 25.399C23.7179 24.3389 24.1294 22.2692 25.0065 20.1145C25.9452 17.8087 27.4036 15.4388 29.6357 14.0845C31.1293 13.1784 32.9938 12.7116 35.1875 12.7116C38.1803 12.7116 41.0013 13.5885 42.2566 14.0411C42.0886 15.1002 41.679 17.1693 40.8023 19.3241C39.8644 21.6294 38.4055 23.9997 36.1689 25.3566C34.6752 26.262 32.8115 26.7287 30.6186 26.7287H30.6179C30.6179 26.7287 30.6178 26.7287 30.6178 26.7287C27.6253 26.728 24.8046 25.8515 23.549 25.399Z" fill="#FDCDC1" stroke="#FDCDC1" stroke-width="0.5"/>
<path id="Vector_5" d="M28.1026 7.84142L28.1025 7.84143C25.9956 8.88868 24.4127 10.3083 23.3852 12.0547L23.3851 12.0549C23.1152 12.513 22.5292 12.6649 22.0753 12.3855C21.6251 12.1083 21.4835 11.5163 21.7516 11.0611L28.1026 7.84142ZM28.1026 7.84142C30.562 6.61878 33.1226 6.09618 34.3399 5.90207C34.7157 7.01108 35.3935 9.31211 35.5603 11.8853C35.593 12.3923 36.0076 12.7889 36.5094 12.7889C36.5318 12.7889 36.5539 12.7878 36.5688 12.7871L36.5688 12.7871L36.5737 12.7868C37.1021 12.7507 37.4944 12.2862 37.4599 11.7577C37.2054 7.83878 35.9069 4.61375 35.8486 4.47029L35.8485 4.47011C35.69 4.08122 35.301 3.83654 34.8803 3.87687L34.8802 3.87688C34.714 3.89291 30.9574 4.26798 27.2661 6.10314L27.2661 6.10316M28.1026 7.84142L27.2661 6.10316M27.2661 6.10316C24.8374 7.31115 22.9776 8.97733 21.7517 11.061L27.2661 6.10316Z" fill="#FDCDC1" stroke="#FDCDC1" stroke-width="0.5"/>
</g>
</g>
</svg>
