<svg width="42" height="41" viewBox="0 0 42 41" fill="none" xmlns="http://www.w3.org/2000/svg">
<g id="Group">
<path id="Vector" d="M28.7341 20.6209L28.7341 20.6213C28.3847 22.8193 27.2018 24.7547 25.3976 26.0633C23.9673 27.1035 22.2719 27.6566 20.504 27.6566C17.8419 27.6566 15.3185 26.3725 13.7536 24.2182L28.7341 20.6209ZM28.7341 20.6209C29.0795 18.4228 28.551 16.2191 27.2426 14.4188C25.6777 12.2645 23.1543 10.9805 20.4922 10.9805C18.7246 10.9805 17.0291 11.5294 15.5946 12.5738M28.7341 20.6209L15.5946 12.5738M15.5946 12.5738C11.8799 15.2766 11.0507 20.499 13.7535 24.2181L15.5946 12.5738ZM24.2875 16.5659L24.2877 16.5662C25.0249 17.5766 25.3205 18.8144 25.1258 20.0504C24.9312 21.2855 24.2656 22.3702 23.2506 23.1081C22.4453 23.6924 21.4992 24.0026 20.5079 24.0026C19.0109 24.0026 17.592 23.2799 16.7126 22.0711C15.1931 19.9788 15.6576 17.0444 17.7453 15.5291C18.5506 14.9448 19.5006 14.6345 20.4922 14.6345C21.9892 14.6345 23.4081 15.3571 24.2875 16.5659Z" fill="#FFD976" stroke="#FFD976" stroke-width="0.5"/>
<path id="Vector_2" d="M14.3285 18.8969C14.1669 18.8969 14.0013 18.8732 13.8397 18.818L10.5676 17.7536C6.22709 16.3421 3.70401 11.9147 4.70142 7.45575C5.16661 5.35045 6.3769 3.50142 8.09969 2.2477C9.91316 0.930907 12.1524 0.359242 14.3995 0.647045C18.9213 1.22265 22.2211 5.0863 22.087 9.63595V12.8215C22.087 13.6928 21.3853 14.3985 20.514 14.3985C19.6428 14.3985 18.9371 13.6928 18.9371 12.8215V9.60836C18.9371 9.60836 18.9371 9.57287 18.9371 9.55316C19.0357 6.62782 16.9147 4.1401 14.0053 3.76951C12.5584 3.58421 11.1195 3.94692 9.95652 4.79456C8.85267 5.59489 8.08392 6.78158 7.78036 8.1378C7.14171 11.004 8.75806 13.8465 11.5453 14.7494L14.8213 15.8139C15.6492 16.0819 16.1026 16.973 15.8345 17.8009C15.6177 18.4672 14.9987 18.889 14.3364 18.889L14.3285 18.8969Z" fill="#FFD976"/>
<path id="Vector_3" d="M8.83099 31.9264C7.30137 31.9264 5.75204 31.5243 4.33675 30.6885C2.46809 29.5846 1.08434 27.8617 0.429919 25.8392C-0.263928 23.7103 -0.11412 21.4078 0.851747 19.3577C2.80319 15.2221 7.51426 13.2784 11.8074 14.8357C12.6274 15.1314 13.0493 16.0382 12.7536 16.8543C12.4579 17.6743 11.5512 18.0961 10.7351 17.8005C7.97945 16.803 4.95569 18.0488 3.70598 20.7021C3.0831 22.0229 2.98848 23.5013 3.43002 24.8654C3.8479 26.1586 4.73887 27.2625 5.94522 27.9721C8.4683 29.4624 11.6655 28.8 13.3844 26.4306L15.4186 23.6432C15.9311 22.9375 16.9167 22.7838 17.6223 23.2963C18.328 23.8088 18.4818 24.7945 17.9693 25.5002L15.939 28.2836C14.2241 30.6491 11.563 31.9225 8.83887 31.9225L8.83099 31.9264Z" fill="#FFD976"/>
<path id="Vector_4" d="M20.51 40.4259C18.2668 40.4259 16.1222 39.5703 14.4664 38.0131C11.1351 34.8788 10.7409 29.8008 13.5518 26.1974C14.0879 25.5114 15.0775 25.3892 15.7634 25.9253C16.4494 26.4615 16.5716 27.4511 16.0354 28.1371C14.2338 30.4474 14.4861 33.7039 16.6228 35.7146C17.6912 36.716 19.0671 37.2679 20.4981 37.2679C21.8582 37.264 23.1868 36.7554 24.2355 35.8368C26.4274 33.8971 26.7861 30.6445 25.0633 28.279L23.0409 25.4838C22.5324 24.7781 22.6901 23.7925 23.3918 23.2799C24.0975 22.7713 25.083 22.9251 25.5955 23.6308L27.614 26.4221C30.2948 30.1044 29.7429 35.1705 26.3209 38.1984C24.6928 39.6255 22.6309 40.4101 20.506 40.418L20.51 40.4259Z" fill="#FFD976"/>
<path id="Vector_5" d="M32.1819 31.9359C29.3553 31.9359 26.6035 30.5679 24.9044 28.0604C24.4155 27.339 24.6048 26.3573 25.3262 25.8684C26.0477 25.3795 27.0254 25.5688 27.5142 26.2902C29.1581 28.7188 32.3396 29.4837 34.9139 28.0762C36.1952 27.3744 37.1453 26.2429 37.5829 24.8788C38.0008 23.5817 37.9298 22.1624 37.3779 20.8811C36.2149 18.1963 33.2306 16.848 30.4394 17.7547L27.1673 18.8153C26.3394 19.0834 25.4484 18.63 25.1804 17.802C24.9123 16.9741 25.3656 16.0831 26.1935 15.815L29.4657 14.7545C33.8101 13.3431 38.4581 15.4405 40.2715 19.6314C41.1231 21.6184 41.2335 23.8222 40.583 25.8487C39.8931 27.9816 38.4147 29.7557 36.4238 30.8438C35.0756 31.585 33.6169 31.9399 32.178 31.9399L32.1819 31.9359Z" fill="#FFD976"/>
<path id="Vector_6" d="M29.7278 17.9051C29.0418 17.9051 28.411 17.4557 28.2139 16.7658C27.9734 15.93 28.4544 15.0547 29.2902 14.8142C32.1089 14.0021 33.8199 11.2147 33.2719 8.33275C32.9959 6.89768 32.2114 5.64396 31.0563 4.80027C29.9564 4.00783 28.5727 3.63723 27.185 3.75945C24.2755 4.03937 22.0757 6.46006 22.0797 9.38934V12.8351C22.0797 13.7064 21.3701 14.4121 20.4988 14.4121C19.6275 14.4121 18.9219 13.7024 18.9219 12.8351V9.39328C18.9219 4.83181 22.3477 1.06277 26.8972 0.625157C29.0497 0.435917 31.1825 1.01152 32.9092 2.24947C34.7227 3.57021 35.9487 5.52175 36.3745 7.74532C37.226 12.2398 34.5571 16.5805 30.1693 17.846C30.0234 17.8894 29.8776 17.9091 29.7317 17.9091L29.7278 17.9051Z" fill="#FFD976"/>
</g>
</svg>
