<svg width="45" height="43" viewBox="0 0 45 43" fill="none" xmlns="http://www.w3.org/2000/svg">
<g id="Group 124855">
<g id="Group">
<path id="Vector" d="M22.4854 42.2484H22.6401L22.6472 42.2341C22.8683 42.1991 23.0801 42.092 23.2436 41.9151L23.2437 41.915C23.6303 41.4966 23.6055 40.8433 23.1871 40.456C21.665 39.0464 20.8797 37.4142 20.8797 35.7312C20.8797 34.0482 21.6666 32.4111 23.1935 31L23.1937 30.9998C23.6118 30.6129 23.638 29.9596 23.2511 29.5408L23.0675 29.7104L23.2514 29.541C22.8654 29.122 22.2113 29.096 21.7929 29.4832C19.8557 31.274 18.8154 33.438 18.8154 35.732C18.8154 38.0259 19.8523 40.1833 21.7845 41.9733L21.7847 41.9735C21.983 42.1568 22.2343 42.2484 22.4854 42.2484Z" fill="#C7D9A7" stroke="#C7D9A7" stroke-width="0.5"/>
<path id="Vector_2" d="M21.7914 30.9999L21.7914 30.9998C21.3733 30.6129 21.347 29.9596 21.7339 29.5408C22.1206 29.1222 22.7736 29.0959 23.1922 29.4832C25.1293 31.2748 26.1696 33.4355 26.1696 35.732C26.1696 38.0285 25.1327 40.1833 23.2005 41.9733L23.2003 41.9735C23.002 42.1568 22.7507 42.2484 22.4996 42.2484H22.345L22.338 42.2342C22.1167 42.1995 21.905 42.0929 21.741 41.9147L21.7914 30.9999ZM21.7914 30.9999C23.3176 32.4111 24.1053 34.0507 24.1053 35.7312C24.1053 37.4117 23.3201 39.0456 21.7979 40.456L21.7914 30.9999Z" fill="#C7D9A7" stroke="#C7D9A7" stroke-width="0.5"/>
</g>
<g id="Group_2">
<g id="Group_3">
<path id="Vector_3" d="M34.2919 19.3399L34.2919 19.34C32.8358 20.1821 31.0263 20.3177 29.0419 19.7C28.4971 19.5303 27.9193 19.8353 27.75 20.3795C27.5805 20.9243 27.8847 21.5027 28.4288 21.6723C29.4524 21.9914 30.4539 22.1509 31.4177 22.1509C32.825 22.1509 34.1463 21.8101 35.3243 21.1293C37.3089 19.9826 38.6577 18.0042 39.2401 15.4352L39.2401 15.4351C39.3659 14.8791 39.0188 14.3254 38.462 14.1991C37.906 14.073 37.3529 14.4209 37.2268 14.9777C36.7679 17.0017 35.7457 18.4993 34.2919 19.3399Z" fill="#C7D9A7" stroke="#C7D9A7" stroke-width="0.5"/>
<path id="Vector_4" d="M28.8393 21.7189H28.7358C28.6599 21.7189 28.5828 21.7101 28.5072 21.6928L28.5629 21.4491M28.8393 21.7189L27.7288 20.458C27.6029 21.0145 27.9516 21.5669 28.5077 21.693L28.5629 21.4491M28.8393 21.7189L28.846 21.7122M28.8393 21.7189L28.846 21.7122M28.5629 21.4491C28.6206 21.4623 28.679 21.4689 28.7358 21.4689L27.9726 20.513C27.8771 20.9349 28.1414 21.3535 28.5629 21.4491ZM28.846 21.7122C29.273 21.6664 29.6427 21.3547 29.7429 20.9127L29.7429 20.9124C30.2003 18.8827 31.2233 17.382 32.6794 16.5406L32.6795 16.5406C34.1331 15.7 35.9395 15.5637 37.9207 16.1781C38.4661 16.3476 39.0439 16.0419 39.2124 15.4976C39.3817 14.952 39.0767 14.3734 38.5322 14.2048C36.0177 13.4256 33.6317 13.6054 31.6471 14.7521L31.6471 14.7521C29.6591 15.9012 28.3094 17.883 27.7288 20.4579L28.846 21.7122Z" fill="#C7D9A7" stroke="#C7D9A7" stroke-width="0.5"/>
</g>
<g id="Group_4">
<path id="Vector_5" d="M5.75521 15.2179L5.75518 15.2178C5.62928 14.6615 5.97755 14.108 6.5331 13.9818L6.5332 13.9818C7.08949 13.8556 7.64238 14.2047 7.7684 14.7603L7.7684 14.7604C8.22741 16.7853 9.24873 18.2828 10.7032 19.1225L10.7033 19.1226C12.1594 19.964 13.9691 20.1003 15.9534 19.4827C16.4976 19.3131 17.0767 19.6175 17.2453 20.1623M5.75521 15.2179L17.0066 20.2365M5.75521 15.2179C6.33835 17.7868 7.68631 19.7652 9.67091 20.9119M5.75521 15.2179L5.99901 15.1626M17.2453 20.1623C17.2453 20.1624 17.2454 20.1625 17.2454 20.1626L17.0066 20.2365M17.2453 20.1623C17.2453 20.1623 17.2453 20.1622 17.2453 20.1622L17.0066 20.2365M17.2453 20.1623C17.4147 20.707 17.1105 21.2854 16.5664 21.455L16.5662 21.455C15.5429 21.7732 14.5406 21.9336 13.5775 21.9336C12.1702 21.9336 10.8481 21.5928 9.67091 20.9119M17.0066 20.2365C17.135 20.6493 16.9045 21.0878 16.492 21.2163C15.49 21.5278 14.5128 21.6836 13.5775 21.6836C12.2117 21.6836 10.9331 21.3531 9.79608 20.6955M9.67091 20.9119C9.67095 20.9119 9.67098 20.9119 9.67102 20.912L9.79608 20.6955M9.67091 20.9119L9.79608 20.6955M9.79608 20.6955C7.8819 19.5896 6.56956 17.676 5.99901 15.1626M5.99901 15.1626C5.90351 14.7406 6.16779 14.3212 6.58849 14.2256L5.99901 15.1626Z" fill="#C7D9A7" stroke="#C7D9A7" stroke-width="0.5"/>
<path id="Vector_6" d="M16.4877 21.476C17.0425 21.3498 17.3923 20.7978 17.2663 20.241C16.6849 17.6662 15.3352 15.6835 13.348 14.5351L13.348 14.5351C11.3634 13.3885 8.97748 13.2078 6.46282 13.9879L6.46282 13.9879L6.4625 13.988C5.91831 14.1576 5.61437 14.7359 5.78265 15.2803L5.78278 15.2808C5.95212 15.8251 6.52988 16.1298 7.07436 15.9612L7.07446 15.9612C9.05557 15.3467 10.862 15.4831 12.3157 16.3236L12.3157 16.3237C13.7718 17.165 14.794 18.6665 15.2522 20.6956L15.2522 20.6958C15.3524 21.1378 15.722 21.4494 16.1489 21.4953L16.1556 21.502H16.2593C16.3351 21.502 16.4122 21.4932 16.4877 21.476ZM16.4877 21.476C16.4878 21.476 16.4878 21.4759 16.4879 21.4759L16.4322 21.2322L16.4876 21.476C16.4876 21.476 16.4876 21.476 16.4877 21.476Z" fill="#C7D9A7" stroke="#C7D9A7" stroke-width="0.5"/>
</g>
</g>
<g id="Group_5">
<g id="Group_6">
<path id="Vector_7" d="M13.3557 4.59136L13.3558 4.59136L13.3568 4.59132L13.3603 4.5912L13.373 4.59079L13.421 4.58959C13.4626 4.58873 13.5234 4.58789 13.6014 4.58789C14.435 4.58789 16.6058 4.67068 18.7187 5.44624L13.3557 4.59136ZM13.3557 4.59136C13.3557 4.59136 13.3556 4.59137 13.3556 4.59137L13.3555 4.59137L13.3554 4.59138L13.3553 4.59138L13.3553 4.59138L13.3557 4.59136ZM16.8226 16.6797C17.4853 17.5899 18.4999 18.2238 19.812 18.5794L19.8122 18.5794C20.66 18.8084 21.4635 18.8726 21.9763 18.8869V18.8913H22.2263C22.3227 18.8913 22.4003 18.8894 22.4558 18.8875C22.4835 18.8865 22.5055 18.8855 22.5212 18.8848C22.5357 18.8842 22.5401 18.884 22.5401 18.8839C22.5401 18.8839 22.54 18.8839 22.5398 18.8839H22.545L22.5526 18.8835C23.0924 18.8508 23.5148 18.4083 23.5235 17.8682L23.5235 17.8681C23.5267 17.6629 23.6022 12.6044 23.4865 11.1536L16.8226 16.6797ZM16.7689 7.92602L16.7689 7.92599C16.547 7.54506 16.3021 7.19066 16.053 6.86763C17.0858 7.04623 18.2447 7.36896 19.2226 7.94661C20.398 8.64087 21.3005 9.69421 21.4296 11.3168C21.5063 12.2839 21.4889 15.2018 21.4728 16.7918C19.4587 16.6083 18.6765 15.7162 18.4912 15.4622C18.4502 15.4059 18.3894 15.2608 18.3198 15.0149C18.2535 14.7808 18.1877 14.4875 18.1239 14.1639C17.9965 13.5173 17.8807 12.7681 17.7879 12.1663L17.7879 12.1662L17.7852 12.1488C17.6535 11.2973 17.5241 10.4604 17.3685 9.73485C17.2131 9.01005 17.0263 8.36787 16.7689 7.92602Z" fill="#C7D9A7" stroke="#C7D9A7" stroke-width="0.5"/>
<path id="Vector_8" d="M23.3593 18.8913H22.757C22.5693 18.8913 22.451 18.8848 22.4301 18.8834M23.3593 18.8913L21.4967 11.1537C21.3811 12.6038 21.4566 17.6621 21.4598 17.8681L21.4598 17.8682C21.4684 18.4077 21.891 18.8513 22.4301 18.8834M23.3593 18.8913L23.3401 18.872M23.3593 18.8913L22.4458 18.6339M22.4301 18.8834C22.4304 18.8834 22.4308 18.8835 22.4312 18.8835L22.443 18.6806M22.4301 18.8834C22.4297 18.8834 22.4294 18.8834 22.4291 18.8834L22.4427 18.6802M22.443 18.6806L22.4427 18.6802M22.443 18.6806L22.4458 18.6339M22.443 18.6806L22.5791 18.817L22.5799 18.8179L22.7561 18.6422V18.8905C22.7564 18.8905 22.7567 18.8905 22.757 18.8905C22.908 18.8905 23.1067 18.8864 23.3401 18.872M22.4427 18.6802L22.3915 18.6289C22.4094 18.6312 22.4275 18.6328 22.4458 18.6339M22.4427 18.6802L22.4458 18.6339M23.3401 18.872C23.8363 18.8414 24.4888 18.7641 25.1704 18.5794M23.3401 18.872L25.1704 18.5794M25.1704 18.5794C26.4836 18.2246 27.4972 17.5906 28.1607 16.6797L27.9586 16.5325L28.1607 16.6797C28.428 16.3127 28.6127 15.7763 28.7717 15.0939C28.932 14.4059 29.0729 13.5364 29.2356 12.4824L29.2358 12.481C29.3409 11.8006 29.4578 11.0443 29.5883 10.3893C29.6535 10.0616 29.7215 9.76302 29.7921 9.51436C29.8639 9.26129 29.9339 9.07665 29.9982 8.96636L29.9983 8.96625C30.4232 8.23621 30.9745 7.60726 31.4248 7.15749C31.8649 6.71789 32.2014 6.45637 32.2141 6.44647L32.2145 6.44619L32.2157 6.44529C32.5638 6.18067 32.7057 5.72698 32.5745 5.31148L32.5743 5.31074C32.4418 4.89563 32.063 4.60767 31.6275 4.59136M25.1704 18.5794L21.4967 11.1536C21.7093 8.47579 23.3825 6.50393 26.2645 5.44624M31.6275 4.59136L31.6278 4.59137L31.6279 4.59138L31.6279 4.59138L31.628 4.59138L31.6182 4.84119L31.6275 4.59136ZM31.6275 4.59136L31.6275 4.59136L31.6264 4.59132L31.623 4.5912L31.6102 4.59079L31.5623 4.58959C31.5206 4.58873 31.4598 4.58789 31.3819 4.58789C30.5482 4.58789 28.3775 4.67068 26.2645 5.44624M26.2645 5.44624L26.3507 5.68093L26.2645 5.44624ZM28.9294 6.86875C27.897 7.04741 26.7388 7.3701 25.7615 7.94744C24.5861 8.6417 23.6836 9.69504 23.5545 11.3177L28.9294 6.86875ZM28.9294 6.86875C28.6803 7.1917 28.4355 7.54595 28.2143 7.92602C27.957 8.36785 27.7699 9.01021 27.6144 9.73524C27.4577 10.466 27.3276 11.3095 27.1953 12.1671L27.1953 12.1671C27.1025 12.7689 26.9868 13.5181 26.8594 14.1648C26.7957 14.4883 26.73 14.7817 26.6638 15.0159C26.5943 15.2617 26.5336 15.4069 26.4927 15.4633C26.3076 15.7177 25.5255 16.6092 23.5113 16.7926C23.4952 15.2027 23.4778 12.2849 23.5545 11.3177L28.9294 6.86875Z" fill="#C7D9A7" stroke="#C7D9A7" stroke-width="0.5"/>
</g>
<g id="Group_7">
<path id="Vector_9" d="M17.7312 5.85713L17.7315 5.85642L17.7316 5.85617C17.7575 5.78653 18.3171 4.28622 19.3234 3.04472L17.7312 5.85713ZM17.7312 5.85713C17.5335 6.3922 17.8073 6.98572 18.3415 7.18358L17.7312 5.85713ZM23.3955 1.28598L23.3957 1.28635C23.6693 1.78628 23.4869 2.41346 22.9874 2.68845L22.9846 2.69L22.9846 2.68998C22.9846 2.68994 22.9844 2.69009 22.9838 2.69043C22.9656 2.70062 22.6446 2.88081 22.2335 3.17252C21.8069 3.47518 21.2977 3.88788 20.9272 4.34576L20.9271 4.34586C20.1624 5.28976 19.7044 6.47781 19.6681 6.57287L19.6681 6.57287C19.5139 6.98922 19.1196 7.2478 18.7001 7.2478H18.6993C18.5807 7.2478 18.459 7.22714 18.3416 7.18362L23.3955 1.28598ZM23.3955 1.28598C23.1208 0.786129 22.494 0.603205 21.9941 0.877308L22.1143 1.09651L21.9947 0.876982M23.3955 1.28598L21.9947 0.876982M21.9947 0.876982C21.9271 0.913843 20.3366 1.79366 19.3234 3.04464L21.9947 0.876982Z" fill="#C7D9A7" stroke="#C7D9A7" stroke-width="0.5"/>
<path id="Vector_10" d="M22.111 2.46901L21.9883 2.68685L21.9889 2.68716C22.0228 2.70622 23.3069 3.42713 24.0515 4.34625L24.0516 4.34628L27.2474 5.85752C27.2207 5.78498 26.6604 4.28619 25.6553 3.04511C24.6421 1.79406 23.0521 0.914895 22.9849 0.8779L22.8643 1.09691M22.111 2.46901L21.9902 2.6879C21.4917 2.41286 21.3091 1.78469 21.5841 1.28535C21.8585 0.787023 22.4853 0.602259 22.9851 0.878011L22.8643 1.09691M22.111 2.46901C21.7331 2.26052 21.5948 1.78419 21.8031 1.40594C22.0114 1.02768 22.4864 0.888412 22.8643 1.09691M22.111 2.46901C22.1111 2.46907 22.1113 2.46919 22.1116 2.46935C22.1465 2.48891 23.4686 3.2295 24.2458 4.18888L27.0129 5.94418C26.9899 5.88155 26.4407 4.4122 25.461 3.20245C24.4813 1.99269 22.9302 1.13317 22.8643 1.09691" fill="#C7D9A7" stroke="#C7D9A7" stroke-width="0.5"/>
</g>
</g>
<g id="Group_8">
<g id="Group_9">
<g id="Group_10">
<path id="Vector_11" d="M32.3264 38.1502L32.3263 38.1502C32.263 38.0394 32.1383 37.8865 31.9552 37.6977C31.7753 37.5122 31.551 37.304 31.3001 37.0836C30.7986 36.643 30.2028 36.1636 29.667 35.7324L29.6657 35.7314L32.3264 38.1502ZM32.3264 38.1502C33.1539 39.5985 33.3893 41.2673 33.3989 41.336M32.3264 38.1502L34.2551 41.9678M34.6859 29.6882L34.6859 29.6883C35.872 30.5054 36.6784 31.5856 37.0845 32.8896C37.4895 34.1904 37.4916 35.6985 37.0976 37.3699C36.5357 39.7544 35.3527 41.6643 35.2986 41.7508M34.6859 29.6882L35.0866 41.6184M34.6859 29.6882C33.4879 28.863 29.0761 26.3996 28.8942 26.2985L34.6859 29.6882ZM35.2986 41.7508L35.0866 41.6184M35.2986 41.7508C35.2987 41.7508 35.2987 41.7507 35.2987 41.7507L35.0866 41.6184M35.2986 41.7508C35.1072 42.0578 34.7735 42.2359 34.4238 42.2359H34.423C34.3498 42.2359 34.2758 42.2284 34.2014 42.212M35.0866 41.6184C34.9417 41.8508 34.6889 41.9859 34.4238 41.9859H34.423C34.367 41.9859 34.311 41.9802 34.2551 41.9678M34.2014 42.212L34.2551 41.9678M34.2014 42.212C34.2013 42.212 34.2013 42.212 34.2012 42.2119L34.2551 41.9678M34.2014 42.212C33.7754 42.1184 33.4555 41.7674 33.3989 41.336M33.3989 41.336C33.3988 41.3357 33.3988 41.3354 33.3987 41.3351L33.6466 41.3028L33.3991 41.3381L33.399 41.3372C33.399 41.3369 33.3989 41.3365 33.3989 41.336ZM35.0942 36.8638C34.9799 37.3561 34.8319 37.8304 34.6723 38.2672C34.5181 37.8922 34.3349 37.5055 34.1181 37.1259L34.1181 37.1259C33.8644 36.6818 33.4022 36.1985 32.8528 35.7013C32.2998 35.2009 31.6364 34.6672 30.9618 34.1246L30.9588 34.1222L30.9588 34.1222C30.4846 33.7408 29.8943 33.2659 29.3986 32.8321C29.1505 32.6151 28.9296 32.4114 28.7602 32.2369C28.5822 32.0537 28.487 31.9284 28.4587 31.8646L28.4587 31.8646C28.2089 31.301 28.2113 30.6504 28.338 30.0181C28.4418 29.5002 28.6259 29.0105 28.8034 28.6189C30.1879 29.4007 32.716 30.8413 33.513 31.3905L33.513 31.3905C34.3305 31.9537 34.8671 32.6865 35.1314 33.587C35.397 34.4922 35.3919 35.5832 35.0942 36.8637L35.0942 36.8638ZM26.5715 32.7008C26.7553 33.1159 27.127 33.5443 27.6379 34.0234C28.153 34.5063 28.835 35.0633 29.6657 35.7314L26.5715 32.7008ZM26.567 28.6788C26.1908 29.819 25.9581 31.3161 26.5715 32.7008L28.8941 26.2985C28.4216 26.0355 27.8274 26.1814 27.5299 26.6324L27.7386 26.77L27.5303 26.6317C27.4806 26.7066 26.9446 27.5338 26.567 28.6788Z" fill="#C7D9A7" stroke="#C7D9A7" stroke-width="0.5"/>
<path id="Vector_12" d="M27.6915 26.8508L27.4679 26.7389C27.2259 27.2224 27.3972 27.8105 27.8609 28.0879C28.0369 28.1934 32.3757 30.7882 33.6887 31.4137L33.6888 31.4138C34.5209 31.8097 35.3803 32.0204 36.2446 32.0362L36.2463 32.0379H36.3501C38.7687 32.0379 40.7636 30.5393 42.1503 29.0553C43.5425 27.5652 44.363 26.0459 44.4326 25.915L44.4327 25.9148C44.637 25.5297 44.5771 25.058 44.2841 24.7355C43.991 24.4127 43.5265 24.3093 43.1246 24.4762C43.0556 24.5042 41.4964 25.1317 39.8297 25.1389C39.7006 25.1388 39.5051 25.1067 39.2505 25.0422C38.9998 24.9788 38.7077 24.8883 38.3919 24.7811C37.7634 24.5678 37.0558 24.293 36.4181 24.0454L36.4086 24.0417C36.4086 24.0417 36.4086 24.0417 36.4085 24.0417C36.4085 24.0417 36.4085 24.0417 36.4085 24.0417C35.6082 23.7306 34.8535 23.4372 34.191 23.2221C33.5336 23.0086 32.9402 22.8628 32.4683 22.8628C32.3905 22.8628 32.3144 22.8665 32.241 22.874L32.2401 22.8741C30.7347 23.0345 29.5556 23.9848 28.7572 24.881C27.9553 25.781 27.5077 26.6594 27.4678 26.7391L27.6915 26.8508ZM27.6915 26.8508C27.5079 27.2176 27.638 27.6634 27.9895 27.8735L36.318 24.2748C34.7134 23.6509 33.3278 23.1128 32.4683 23.1128C32.3983 23.1128 32.3308 23.1161 32.2666 23.1227C29.436 23.4243 27.7614 26.7108 27.6915 26.8508ZM41.1055 27.1148C40.9926 27.2498 40.8741 27.3862 40.7502 27.5223L40.7501 27.5225C39.7071 28.6705 38.1239 29.9722 36.3485 29.9722C35.7646 29.9722 35.168 29.8314 34.5756 29.549L34.5756 29.549C33.7027 29.1332 31.1943 27.6638 29.8251 26.8534C30.0769 26.5034 30.4105 26.098 30.8074 25.7483C31.2921 25.3214 31.8521 24.9941 32.4577 24.9296L32.4592 24.9295C32.4611 24.9294 32.4638 24.9294 32.4674 24.9294C32.5758 24.9294 32.7506 24.9589 32.987 25.0202C33.2182 25.0801 33.4909 25.1657 33.7874 25.2673C34.3805 25.4704 35.0548 25.7323 35.661 25.968L35.661 25.968C36.4669 26.2813 37.2593 26.5893 37.968 26.8186C38.6712 27.0461 39.3189 27.2055 39.8294 27.2055L39.8385 27.2055L39.8397 27.2055C40.2772 27.2033 40.7036 27.1687 41.1055 27.1148Z" fill="#C7D9A7" stroke="#C7D9A7" stroke-width="0.5"/>
</g>
<g id="Group_11">
<path id="Vector_13" d="M36.395 37.329L36.3963 37.3292L36.3968 37.3293C36.4515 37.3384 37.1971 37.4628 38.1622 37.4628C38.6144 37.4628 39.1188 37.4359 39.6242 37.355C41.2127 37.1021 42.7672 36.1645 42.8342 36.1241L42.8344 36.124L42.8349 36.1237C43.323 35.8277 43.4767 35.1936 43.1828 34.7062L43.1827 34.706C42.8881 34.2186 42.2536 34.0621 41.7658 34.3568L41.7658 34.3568L41.7625 34.3589C41.7626 34.3588 41.7623 34.359 41.7618 34.3593C41.7449 34.3694 41.428 34.5581 40.9689 34.7692C40.4937 34.9877 39.8821 35.2228 39.3003 35.3153L39.3003 35.3153C38.6908 35.4123 38.0579 35.4085 37.5699 35.3787C37.3268 35.3638 37.1218 35.3427 36.9764 35.325C36.9037 35.3162 36.846 35.3082 36.8061 35.3024C36.7707 35.2972 36.7507 35.294 36.7465 35.2933C36.746 35.2932 36.7458 35.2932 36.7456 35.2931L36.7457 35.2931L36.7433 35.2927C36.1806 35.1958 35.6487 35.575 35.5522 36.1362C35.4554 36.6986 35.8336 37.2322 36.395 37.329Z" fill="#C7D9A7" stroke="#C7D9A7" stroke-width="0.5"/>
<path id="Vector_14" d="M42.2756 36.2755L42.2756 36.2755C41.7055 36.2635 41.2538 35.7911 41.2661 35.2219C41.2668 35.1312 41.2776 33.6914 40.8619 32.606L40.8618 32.6059C40.6383 32.0217 40.3165 31.4725 40.0465 31.0652C39.7832 30.6679 39.5744 30.4133 39.566 30.403C39.5658 30.4027 39.5657 30.4026 39.5657 30.4027L39.5641 30.4008L39.5641 30.4007C39.2006 29.9619 39.2599 29.3108 39.699 28.9463C40.1377 28.5822 40.7886 28.6417 41.1528 29.0813L41.1534 29.0821L41.1534 29.0821L41.1542 29.083C41.2085 29.149 42.2204 30.3799 42.7901 31.8667L42.7902 31.8668C43.3652 33.3697 43.332 35.1857 43.3302 35.2653L42.2756 36.2755ZM42.2756 36.2755H42.2809M42.2756 36.2755H42.2809M42.2809 36.2755H42.2809M42.2809 36.2755H42.2809M42.2809 36.2755H42.2809M42.2809 36.2755H42.2809M42.2809 36.2755H42.281M42.2809 36.2755H42.281M42.281 36.2755H42.281M42.281 36.2755H42.281M42.281 36.2755H42.281M42.281 36.2755H42.281M42.281 36.2755H42.2811M42.281 36.2755H42.2811M42.2811 36.2755H42.2811M42.2811 36.2755H42.2811M42.2811 36.2755H42.2811M42.2811 36.2755H42.2811M42.2811 36.2755H42.2812M42.2811 36.2755H42.2812M42.2812 36.2755H42.2812M42.2812 36.2755H42.2812M42.2812 36.2755H42.2812M42.2812 36.2755H42.2812M42.2812 36.2755H42.2813M42.2812 36.2755H42.2813M42.2813 36.2755H42.2813M42.2813 36.2755H42.2813M42.2813 36.2755H42.2813M42.2813 36.2755H42.2813M42.2813 36.2755H42.2814M42.2813 36.2755H42.2814M42.2814 36.2755H42.2814M42.2814 36.2755H42.2814M42.2814 36.2755H42.2814M42.2814 36.2755H42.2814M42.2814 36.2755H42.2815M42.2814 36.2755H42.2815M42.2815 36.2755H42.2815M42.2815 36.2755H42.2815M42.2815 36.2755H42.2815M42.2815 36.2755H42.2815M42.2815 36.2755H42.2816M42.2815 36.2755H42.2816M42.2816 36.2755H42.2816M42.2816 36.2755H42.2816M42.2816 36.2755H42.2816M42.2816 36.2755H42.2816M42.2816 36.2755H42.2817M42.2816 36.2755H42.2817M42.2817 36.2755H42.2817M42.2817 36.2755H42.2817M42.2817 36.2755H42.2817M42.2817 36.2755H42.2817M42.2817 36.2755H42.2818M42.2817 36.2755H42.2818M42.2818 36.2755H42.2818M42.2818 36.2755H42.2818M42.2818 36.2755H42.2819M42.2818 36.2755H42.2819M42.2819 36.2755H42.2819M42.2819 36.2755H42.2819M42.2819 36.2755H42.2819M42.2819 36.2755H42.2819M42.2819 36.2755H42.282M42.2819 36.2755H42.282M42.282 36.2755H42.282M42.282 36.2755H42.282M42.282 36.2755H42.282M42.282 36.2755H42.282M42.282 36.2755H42.2821M42.282 36.2755H42.2821M42.2821 36.2755H42.2821M42.2821 36.2755H42.2821M42.2821 36.2755H42.2821M42.2821 36.2755H42.2821M42.2821 36.2755H42.2822M42.2821 36.2755H42.2822M42.2822 36.2755H42.2822M42.2822 36.2755H42.2822M42.2822 36.2755H42.2822M42.2822 36.2755H42.2822M42.2822 36.2755H42.2823M42.2822 36.2755H42.2823M42.2823 36.2755H42.2823M42.2823 36.2755H42.2823M42.2823 36.2755H42.2823M42.2823 36.2755H42.2823M42.2823 36.2755H42.2824M42.2823 36.2755H42.2824M42.2824 36.2755H42.2824M42.2824 36.2755H42.2824M42.2824 36.2755H42.2824M42.2824 36.2755H42.2824M42.2824 36.2755H42.2825M42.2824 36.2755H42.2825M42.2825 36.2755H42.2825M42.2825 36.2755H42.2825M42.2825 36.2755H42.2825M42.2825 36.2755H42.2825M42.2825 36.2755H42.2826M42.2825 36.2755H42.2826M42.2826 36.2755H42.2826M42.2826 36.2755H42.2826M42.2826 36.2755H42.2826M42.2826 36.2755H42.2826M42.2826 36.2755H42.2827M42.2826 36.2755H42.2827M42.2827 36.2755H42.2827M42.2827 36.2755H42.2827M42.2827 36.2755H42.2827M42.2827 36.2755H42.2827M42.2827 36.2755H42.2828M42.2827 36.2755H42.2828M42.2828 36.2755H42.2828M42.2828 36.2755H42.2828M42.2828 36.2755H42.2828M42.2828 36.2755H42.2828M42.2828 36.2755H42.2829M42.2828 36.2755H42.2829M42.2829 36.2755H42.2829M42.2829 36.2755H42.2829M42.2829 36.2755H42.2829M42.2829 36.2755H42.2829M42.2829 36.2755H42.283M42.2829 36.2755H42.283M42.283 36.2755H42.283M42.283 36.2755H42.283M42.283 36.2755H42.283M42.283 36.2755H42.283M42.283 36.2755H42.2831M42.283 36.2755H42.2831M42.2831 36.2755H42.2831M42.2831 36.2755H42.2831M42.2831 36.2755H42.2831M42.2831 36.2755H42.2831M42.2831 36.2755H42.2832M42.2831 36.2755H42.2832M42.2832 36.2755H42.2832M42.2832 36.2755H42.2832M42.2832 36.2755H42.2832M42.2832 36.2755H42.2832M42.2832 36.2755H42.2833M42.2832 36.2755H42.2833M42.2833 36.2755H42.2833M42.2833 36.2755H42.2833M42.2833 36.2755H42.2833M42.2833 36.2755H42.2833M42.2833 36.2755H42.2834M42.2833 36.2755H42.2834M42.2834 36.2755H42.2834M42.2834 36.2755H42.2834M42.2834 36.2755H42.2834M42.2834 36.2755H42.2834M42.2834 36.2755H42.2835M42.2834 36.2755H42.2835M42.2835 36.2755H42.2835M42.2835 36.2755H42.2835M42.2835 36.2755H42.2835M42.2835 36.2755H42.2835M42.2835 36.2755H42.2836M42.2835 36.2755H42.2836M42.2836 36.2755H42.2836M42.2836 36.2755H42.2836M42.2836 36.2755H42.2836M42.2836 36.2755H42.2836M42.2836 36.2755H42.2837M42.2836 36.2755H42.2837M42.2837 36.2755H42.2837M42.2837 36.2755H42.2837M42.2837 36.2755H42.2837M42.2837 36.2755H42.2837M42.2837 36.2755H42.2838M42.2837 36.2755H42.2838M42.2838 36.2755H42.2838M42.2838 36.2755H42.2838M42.2838 36.2755H42.2838M42.2838 36.2755H42.2838M42.2838 36.2755H42.2839M42.2838 36.2755H42.2839M42.2839 36.2755H42.2839M42.2839 36.2755H42.2839M42.2839 36.2755H42.2839M42.2839 36.2755H42.2839M42.2839 36.2755H42.284M42.2839 36.2755H42.284M42.284 36.2755H42.284M42.284 36.2755H42.284M42.284 36.2755H42.284M42.284 36.2755H42.284M42.284 36.2755H42.2841M42.284 36.2755H42.2841M42.2841 36.2755H42.2841M42.2841 36.2755H42.2841M42.2841 36.2755H42.2841M42.2841 36.2755H42.2841M42.2841 36.2755H42.2842M42.2841 36.2755H42.2842M42.2842 36.2755H42.2842M42.2842 36.2755H42.2842M42.2842 36.2755H42.2842M42.2842 36.2755H42.2842M42.2842 36.2755H42.2843M42.2842 36.2755H42.2843M42.2843 36.2755H42.2843M42.2843 36.2755H42.2843M42.2843 36.2755H42.2843M42.2843 36.2755H42.2843M42.2843 36.2755H42.2844M42.2843 36.2755H42.2844M42.2844 36.2755H42.2844M42.2844 36.2755H42.2844M42.2844 36.2755H42.2845M42.2844 36.2755H42.2845M42.2845 36.2755H42.2845M42.2845 36.2755H42.2845M42.2845 36.2755H42.2845M42.2845 36.2755H42.2845M42.2845 36.2755H42.2846M42.2845 36.2755H42.2846M42.2846 36.2755H42.2846M42.2846 36.2755H42.2846M42.2846 36.2755H42.2846M42.2846 36.2755H42.2846M42.2846 36.2755H42.2847M42.2846 36.2755H42.2847M42.2847 36.2755H42.2847M42.2847 36.2755H42.2847M42.2847 36.2755H42.2847M42.2847 36.2755H42.2847M42.2847 36.2755H42.2848M42.2847 36.2755H42.2848M42.2848 36.2755H42.2848M42.2848 36.2755H42.2848M42.2848 36.2755H42.2848M42.2848 36.2755H42.2848M42.2848 36.2755H42.2849M42.2848 36.2755H42.2849M42.2849 36.2755H42.2849M42.2849 36.2755H42.2849M42.2849 36.2755H42.2849M42.2849 36.2755H42.2849M42.2849 36.2755H42.285M42.2849 36.2755H42.285M42.285 36.2755H42.285M42.285 36.2755H42.285M42.285 36.2755H42.285M42.285 36.2755H42.285M42.285 36.2755H42.2851M42.285 36.2755H42.2851M42.2851 36.2755H42.2851M42.2851 36.2755H42.2851M42.2851 36.2755H42.2851M42.2851 36.2755H42.2851M42.2851 36.2755H42.2852M42.2851 36.2755H42.2852M42.2852 36.2755H42.2852M42.2852 36.2755H42.2852M42.2852 36.2755H42.2852M42.2852 36.2755H42.2852M42.2852 36.2755H42.2853M42.2852 36.2755H42.2853M42.2853 36.2755H42.2853M42.2853 36.2755H42.2853M42.2853 36.2755H42.2853M42.2853 36.2755H42.2853M42.2853 36.2755H42.2854M42.2853 36.2755H42.2854M42.2854 36.2755H42.2854M42.2854 36.2755H42.2854M42.2854 36.2755H42.2854M42.2854 36.2755H42.2854M42.2854 36.2755H42.2855M42.2854 36.2755H42.2855M42.2855 36.2755H42.2855M42.2855 36.2755H42.2855M42.2855 36.2755H42.2855M42.2855 36.2755H42.2855M42.2855 36.2755H42.2856M42.2855 36.2755H42.2856M42.2856 36.2755H42.2856M42.2856 36.2755H42.2856M42.2856 36.2755H42.2856M42.2856 36.2755H42.2856M42.2856 36.2755H42.2857M42.2856 36.2755H42.2857M42.2857 36.2755H42.2857M42.2857 36.2755H42.2857M42.2857 36.2755H42.2857M42.2857 36.2755H42.2857M42.2857 36.2755H42.2858M42.2857 36.2755H42.2858M42.2858 36.2755H42.2858M42.2858 36.2755H42.2858M42.2858 36.2755H42.2858M42.2858 36.2755H42.2858M42.2858 36.2755H42.2859M42.2858 36.2755H42.2859M42.2859 36.2755H42.2859M42.2859 36.2755H42.2859M42.2859 36.2755H42.2859M42.2859 36.2755H42.2859M42.2859 36.2755H42.286M42.2859 36.2755H42.286M42.286 36.2755H42.286M42.286 36.2755H42.286M42.286 36.2755H42.286M42.286 36.2755H42.286M42.286 36.2755H42.2861M42.286 36.2755H42.2861M42.2861 36.2755H42.2861M42.2861 36.2755H42.2861M42.2861 36.2755H42.2861M42.2861 36.2755H42.2861M42.2861 36.2755H42.2862M42.2861 36.2755H42.2862M42.2862 36.2755H42.2862M42.2862 36.2755H42.2862M42.2862 36.2755H42.2862M42.2862 36.2755H42.2862M42.2862 36.2755H42.2863M42.2862 36.2755H42.2863M42.2863 36.2755H42.2863M42.2863 36.2755H42.2863M42.2863 36.2755H42.2863M42.2863 36.2755H42.2863M42.2863 36.2755H42.2864M42.2863 36.2755H42.2864M42.2864 36.2755H42.2864M42.2864 36.2755H42.2864M42.2864 36.2755H42.2864M42.2864 36.2755H42.2864M42.2864 36.2755H42.2865M42.2864 36.2755H42.2865M42.2865 36.2755H42.2865M42.2865 36.2755H42.2865M42.2865 36.2755H42.2865M42.2865 36.2755H42.2865M42.2865 36.2755H42.2866M42.2865 36.2755H42.2866M42.2866 36.2755H42.2866M42.2866 36.2755H42.2866M42.2866 36.2755H42.2866M42.2866 36.2755H42.2866M42.2866 36.2755H42.2867M42.2866 36.2755H42.2867M42.2867 36.2755H42.2867M42.2867 36.2755H42.2867M42.2867 36.2755H42.2867M42.2867 36.2755H42.2867M42.2867 36.2755H42.2868M42.2867 36.2755H42.2868M42.2868 36.2755H42.2868M42.2868 36.2755H42.2868M42.2868 36.2755H42.2868M42.2868 36.2755H42.2868M42.2868 36.2755H42.2869M42.2868 36.2755H42.2869M42.2869 36.2755H42.2869M42.2869 36.2755H42.2869M42.2869 36.2755H42.2869M42.2869 36.2755H42.2869M42.2869 36.2755H42.287M42.2869 36.2755H42.287M42.287 36.2755H42.287M42.287 36.2755H42.287M42.287 36.2755H42.2871M42.287 36.2755H42.2871M42.2871 36.2755H42.2871M42.2871 36.2755H42.2871M42.2871 36.2755H42.2871M42.2871 36.2755H42.2871M42.2871 36.2755H42.2872M42.2871 36.2755H42.2872M42.2872 36.2755H42.2872M42.2872 36.2755H42.2872M42.2872 36.2755H42.2872M42.2872 36.2755H42.2872M42.2872 36.2755H42.2873M42.2872 36.2755H42.2873M42.2873 36.2755H42.2873M42.2873 36.2755H42.2873M42.2873 36.2755H42.2873M42.2873 36.2755H42.2873M42.2873 36.2755H42.2874M42.2873 36.2755H42.2874M42.2874 36.2755H42.2874M42.2874 36.2755H42.2874M42.2874 36.2755H42.2874M42.2874 36.2755H42.2874M42.2874 36.2755H42.2875M42.2874 36.2755H42.2875M42.2875 36.2755H42.2875M42.2875 36.2755H42.2875M42.2875 36.2755H42.2875M42.2875 36.2755H42.2875M42.2875 36.2755H42.2876M42.2875 36.2755H42.2876M42.2876 36.2755H42.2876M42.2876 36.2755H42.2876M42.2876 36.2755H42.2876M42.2876 36.2755H42.2876M42.2876 36.2755H42.2877M42.2876 36.2755H42.2877M42.2877 36.2755H42.2877M42.2877 36.2755H42.2877M42.2877 36.2755H42.2877M42.2877 36.2755H42.2877M42.2877 36.2755H42.2878M42.2877 36.2755H42.2878M42.2878 36.2755H42.2878M42.2878 36.2755H42.2878M42.2878 36.2755H42.2878M42.2878 36.2755H42.2878M42.2878 36.2755H42.2879M42.2878 36.2755H42.2879M42.2879 36.2755H42.2879M42.2879 36.2755H42.2879M42.2879 36.2755H42.2879M42.2879 36.2755H42.2879M42.2879 36.2755H42.288M42.2879 36.2755H42.288M42.288 36.2755H42.288M42.288 36.2755H42.288M42.288 36.2755H42.288M42.288 36.2755H42.288M42.288 36.2755H42.2881M42.288 36.2755H42.2881M42.2881 36.2755H42.2881M42.2881 36.2755H42.2881M42.2881 36.2755H42.2881M42.2881 36.2755H42.2881M42.2881 36.2755H42.2882M42.2881 36.2755H42.2882M42.2882 36.2755H42.2882M42.2882 36.2755H42.2882M42.2882 36.2755H42.2882M42.2882 36.2755H42.2882M42.2882 36.2755H42.2883M42.2882 36.2755H42.2883M42.2883 36.2755H42.2883M42.2883 36.2755H42.2883M42.2883 36.2755H42.2883M42.2883 36.2755H42.2883M42.2883 36.2755H42.2884M42.2883 36.2755H42.2884M42.2884 36.2755H42.2884M42.2884 36.2755H42.2884M42.2884 36.2755H42.2884M42.2884 36.2755H42.2884M42.2884 36.2755H42.2885M42.2884 36.2755H42.2885M42.2885 36.2755H42.2885M42.2885 36.2755H42.2885M42.2885 36.2755H42.2885M42.2885 36.2755H42.2885M42.2885 36.2755H42.2886M42.2885 36.2755H42.2886M42.2886 36.2755H42.2886M42.2886 36.2755H42.2886M42.2886 36.2755H42.2886M42.2886 36.2755H42.2886M42.2886 36.2755H42.2887M42.2886 36.2755H42.2887M42.2887 36.2755H42.2887M42.2887 36.2755H42.2887M42.2887 36.2755H42.2887M42.2887 36.2755H42.2887M42.2887 36.2755H42.2888M42.2887 36.2755H42.2888M42.2888 36.2755H42.2888M42.2888 36.2755H42.2888M42.2888 36.2755H42.2888M42.2888 36.2755H42.2888M42.2888 36.2755H42.2889M42.2888 36.2755H42.2889M42.2889 36.2755H42.2889M42.2889 36.2755H42.2889M42.2889 36.2755H42.2889M42.2889 36.2755H42.2889M42.2889 36.2755H42.289M42.2889 36.2755H42.289M42.289 36.2755H42.289M42.289 36.2755H42.289M42.289 36.2755H42.289M42.289 36.2755H42.289M42.289 36.2755H42.2891M42.289 36.2755H42.2891M42.2891 36.2755H42.2891M42.2891 36.2755H42.2891M42.2891 36.2755H42.2891M42.2891 36.2755H42.2891M42.2891 36.2755H42.2892M42.2891 36.2755H42.2892M42.2892 36.2755H42.2892M42.2892 36.2755H42.2892M42.2892 36.2755H42.2892M42.2892 36.2755H42.2892M42.2892 36.2755H42.2893M42.2892 36.2755H42.2893M42.2893 36.2755H42.2893M42.2893 36.2755H42.2893M42.2893 36.2755H42.2893M42.2893 36.2755H42.2893M42.2893 36.2755H42.2894M42.2893 36.2755H42.2894M42.2894 36.2755H42.2894M42.2894 36.2755H42.2894M42.2894 36.2755H42.2894M42.2894 36.2755H42.2894M42.2894 36.2755H42.2895M42.2894 36.2755H42.2895M42.2895 36.2755H42.2895M42.2895 36.2755H42.2895M42.2895 36.2755H42.2895M42.2895 36.2755H42.2895M42.2895 36.2755H42.2896M42.2895 36.2755H42.2896M42.2896 36.2755H42.2896M42.2896 36.2755H42.2896M42.2896 36.2755H42.2897M42.2896 36.2755H42.2897M42.2897 36.2755H42.2897M42.2897 36.2755H42.2897M42.2897 36.2755H42.2897M42.2897 36.2755H42.2897M42.2897 36.2755H42.2898M42.2897 36.2755H42.2898M42.2898 36.2755H42.2898M42.2898 36.2755H42.2898M42.2898 36.2755H42.2898M42.2898 36.2755H42.2898M42.2898 36.2755H42.2899M42.2898 36.2755H42.2899M42.2899 36.2755H42.2899M42.2899 36.2755H42.2899M42.2899 36.2755H42.2899M42.2899 36.2755H42.2899M42.2899 36.2755H42.29M42.2899 36.2755H42.29M42.29 36.2755H42.29M42.29 36.2755H42.29M42.29 36.2755H42.29M42.29 36.2755H42.29M42.29 36.2755H42.2901M42.29 36.2755H42.2901M42.2901 36.2755H42.2901M42.2901 36.2755H42.2901M42.2901 36.2755H42.2901M42.2901 36.2755H42.2901M42.2901 36.2755H42.2902M42.2901 36.2755H42.2902M42.2902 36.2755H42.2902M42.2902 36.2755H42.2902M42.2902 36.2755H42.2902M42.2902 36.2755H42.2902M42.2902 36.2755H42.2903M42.2902 36.2755H42.2903M42.2903 36.2755H42.2903M42.2903 36.2755H42.2903M42.2903 36.2755H42.2903M42.2903 36.2755H42.2903M42.2903 36.2755H42.2904M42.2903 36.2755H42.2904M42.2904 36.2755H42.2904M42.2904 36.2755H42.2904M42.2904 36.2755H42.2904M42.2904 36.2755H42.2904M42.2904 36.2755H42.2905M42.2904 36.2755H42.2905M42.2905 36.2755H42.2905M42.2905 36.2755H42.2905M42.2905 36.2755H42.2905M42.2905 36.2755H42.2905M42.2905 36.2755H42.2906M42.2905 36.2755H42.2906M42.2906 36.2755H42.2906M42.2906 36.2755H42.2906M42.2906 36.2755H42.2906M42.2906 36.2755H42.2906M42.2906 36.2755H42.2907M42.2906 36.2755H42.2907M42.2907 36.2755H42.2907M42.2907 36.2755H42.2907M42.2907 36.2755H42.2907M42.2907 36.2755H42.2907M42.2907 36.2755H42.2908M42.2907 36.2755H42.2908M42.2908 36.2755H42.2908M42.2908 36.2755H42.2908M42.2908 36.2755H42.2908M42.2908 36.2755H42.2908M42.2908 36.2755H42.2909M42.2908 36.2755H42.2909M42.2909 36.2755H42.2909M42.2909 36.2755H42.2909M42.2909 36.2755H42.2909M42.2909 36.2755H42.2909M42.2909 36.2755H42.291M42.2909 36.2755H42.291M42.291 36.2755H42.291M42.291 36.2755H42.291M42.291 36.2755H42.291M42.291 36.2755H42.291M42.291 36.2755H42.2911M42.291 36.2755H42.2911M42.2911 36.2755H42.2911M42.2911 36.2755H42.2911M42.2911 36.2755H42.2911M42.2911 36.2755H42.2911M42.2911 36.2755H42.2912M42.2911 36.2755H42.2912M42.2912 36.2755H42.2912M42.2912 36.2755H42.2912M42.2912 36.2755H42.2912M42.2912 36.2755H42.2912M42.2912 36.2755H42.2913M42.2912 36.2755H42.2913M42.2913 36.2755H42.2913M42.2913 36.2755H42.2913M42.2913 36.2755H42.2913M42.2913 36.2755H42.2913M42.2913 36.2755H42.2914M42.2913 36.2755H42.2914M42.2914 36.2755H42.2914M42.2914 36.2755H42.2914M42.2914 36.2755H42.2914M42.2914 36.2755H42.2914M42.2914 36.2755H42.2915M42.2914 36.2755H42.2915M42.2915 36.2755H42.2915M42.2915 36.2755H42.2915M42.2915 36.2755H42.2915M42.2915 36.2755H42.2915M42.2915 36.2755H42.2916M42.2915 36.2755H42.2916M42.2916 36.2755H42.2916M42.2916 36.2755H42.2916M42.2916 36.2755H42.2916M42.2916 36.2755H42.2916M42.2916 36.2755H42.2917M42.2916 36.2755H42.2917M42.2917 36.2755H42.2917M42.2917 36.2755H42.2917M42.2917 36.2755H42.2917M42.2917 36.2755H42.2917M42.2917 36.2755H42.2918M42.2917 36.2755H42.2918M42.2918 36.2755H42.2918M42.2918 36.2755H42.2918M42.2918 36.2755H42.2918M42.2918 36.2755H42.2918M42.2918 36.2755H42.2919M42.2918 36.2755H42.2919M42.2919 36.2755H42.2919M42.2919 36.2755H42.2919M42.2919 36.2755H42.2919M42.2919 36.2755H42.2919M42.2919 36.2755H42.292M42.2919 36.2755H42.292M42.292 36.2755H42.292M42.292 36.2755H42.292M42.292 36.2755H42.292M42.292 36.2755H42.292M42.292 36.2755H42.2921M42.292 36.2755H42.2921M42.2921 36.2755H42.2921M42.2921 36.2755H42.2921M42.2921 36.2755H42.2921M42.2921 36.2755H42.2921M42.2921 36.2755H42.2922M42.2921 36.2755H42.2922M42.2922 36.2755H42.2922M42.2922 36.2755H42.2922M42.2922 36.2755H42.2923M42.2922 36.2755H42.2923M42.2923 36.2755H42.2923M42.2923 36.2755H42.2923M42.2923 36.2755H42.2923M42.2923 36.2755H42.2923M42.2923 36.2755H42.2924M42.2923 36.2755H42.2924M42.2924 36.2755H42.2924M42.2924 36.2755H42.2924M42.2924 36.2755H42.2924M42.2924 36.2755H42.2924M42.2924 36.2755H42.2925M42.2924 36.2755H42.2925M42.2925 36.2755H42.2925M42.2925 36.2755H42.2925M42.2925 36.2755H42.2925M42.2925 36.2755H42.2925M42.2925 36.2755H42.2926M42.2925 36.2755H42.2926M42.2926 36.2755H42.2926M42.2926 36.2755H42.2926M42.2926 36.2755H42.2926M42.2926 36.2755H42.2926M42.2926 36.2755H42.2927M42.2926 36.2755H42.2927M42.2927 36.2755H42.2927M42.2927 36.2755H42.2927M42.2927 36.2755H42.2927M42.2927 36.2755H42.2927M42.2927 36.2755H42.2928M42.2927 36.2755H42.2928M42.2928 36.2755H42.2928M42.2928 36.2755H42.2928M42.2928 36.2755H42.2928M42.2928 36.2755H42.2928M42.2928 36.2755H42.2929M42.2928 36.2755H42.2929M42.2929 36.2755H42.2929M42.2929 36.2755H42.2929M42.2929 36.2755H42.2929M42.2929 36.2755H42.2929M42.2929 36.2755H42.293M42.2929 36.2755H42.293M42.293 36.2755H42.293M42.293 36.2755H42.293M42.293 36.2755H42.293M42.293 36.2755H42.293M42.293 36.2755H42.2931M42.293 36.2755H42.2931M42.2931 36.2755H42.2931M42.2931 36.2755H42.2931M42.2931 36.2755H42.2931M42.2931 36.2755H42.2931M42.2931 36.2755H42.2932M42.2931 36.2755H42.2932M42.2932 36.2755H42.2932M42.2932 36.2755H42.2932M42.2932 36.2755H42.2932M42.2932 36.2755H42.2932M42.2932 36.2755H42.2933M42.2932 36.2755H42.2933M42.2933 36.2755H42.2933M42.2933 36.2755H42.2933M42.2933 36.2755H42.2933M42.2933 36.2755H42.2933M42.2933 36.2755H42.2934M42.2933 36.2755H42.2934M42.2934 36.2755H42.2934M42.2934 36.2755H42.2934M42.2934 36.2755H42.2934M42.2934 36.2755H42.2934M42.2934 36.2755H42.2935M42.2934 36.2755H42.2935M42.2935 36.2755H42.2935M42.2935 36.2755H42.2935M42.2935 36.2755H42.2935M42.2935 36.2755H42.2935M42.2935 36.2755H42.2936M42.2935 36.2755H42.2936M42.2936 36.2755H42.2936M42.2936 36.2755H42.2936M42.2936 36.2755H42.2936M42.2936 36.2755H42.2936M42.2936 36.2755H42.2937M42.2936 36.2755H42.2937M42.2937 36.2755H42.2937M42.2937 36.2755H42.2937M42.2937 36.2755H42.2937M42.2937 36.2755H42.2937M42.2937 36.2755H42.2938M42.2937 36.2755H42.2938M42.2938 36.2755H42.2938M42.2938 36.2755H42.2938M42.2938 36.2755H42.2938M42.2938 36.2755H42.2938M42.2938 36.2755H42.2939M42.2938 36.2755H42.2939M42.2939 36.2755H42.2939M42.2939 36.2755H42.2939M42.2939 36.2755H42.2939M42.2939 36.2755H42.2939M42.2939 36.2755H42.294M42.2939 36.2755H42.294M42.294 36.2755H42.294M42.294 36.2755H42.294M42.294 36.2755H42.294M42.294 36.2755H42.294M42.294 36.2755H42.2941M42.294 36.2755H42.2941M42.2941 36.2755H42.2941M42.2941 36.2755H42.2941M42.2941 36.2755H42.2941M42.2941 36.2755H42.2941M42.2941 36.2755H42.2942M42.2941 36.2755H42.2942M42.2942 36.2755H42.2942M42.2942 36.2755H42.2942M42.2942 36.2755H42.2942M42.2942 36.2755H42.2942M42.2942 36.2755H42.2943M42.2942 36.2755H42.2943M42.2943 36.2755H42.2943M42.2943 36.2755H42.2943M42.2943 36.2755H42.2943M42.2943 36.2755H42.2943M42.2943 36.2755H42.2944M42.2943 36.2755H42.2944M42.2944 36.2755H42.2944M42.2944 36.2755H42.2944M42.2944 36.2755H42.2944M42.2944 36.2755H42.2944M42.2944 36.2755H42.2945M42.2944 36.2755H42.2945M42.2945 36.2755H42.2945M42.2945 36.2755H42.2945M42.2945 36.2755H42.2945M42.2945 36.2755H42.2945M42.2945 36.2755H42.2946M42.2945 36.2755H42.2946M42.2946 36.2755H42.2946M42.2946 36.2755H42.2946M42.2946 36.2755H42.2946M42.2946 36.2755H42.2946M42.2946 36.2755H42.2947M42.2946 36.2755H42.2947M42.2947 36.2755H42.2947M42.2947 36.2755H42.2947M42.2947 36.2755H42.2947M42.2947 36.2755H42.2947M42.2947 36.2755H42.2948M42.2947 36.2755H42.2948M42.2948 36.2755H42.2948M42.2948 36.2755H42.2948M42.2948 36.2755H42.2949M42.2948 36.2755H42.2949M42.2949 36.2755H42.2949M42.2949 36.2755H42.2949M42.2949 36.2755H42.2949M42.2949 36.2755H42.2949M42.2949 36.2755H42.295M42.2949 36.2755H42.295M42.295 36.2755H42.295M42.295 36.2755H42.295M42.295 36.2755H42.295M42.295 36.2755H42.295M42.295 36.2755H42.2951M42.295 36.2755H42.2951M42.2951 36.2755H42.2951M42.2951 36.2755H42.2951M42.2951 36.2755H42.2951M42.2951 36.2755H42.2951M42.2951 36.2755H42.2952M42.2951 36.2755H42.2952M42.2952 36.2755H42.2952M42.2952 36.2755H42.2952M42.2952 36.2755H42.2952M42.2952 36.2755H42.2952M42.2952 36.2755H42.2953M42.2952 36.2755H42.2953M42.2953 36.2755H42.2953M42.2953 36.2755H42.2953M42.2953 36.2755H42.2953M42.2953 36.2755H42.2953M42.2953 36.2755H42.2954M42.2953 36.2755H42.2954M42.2954 36.2755H42.2954M42.2954 36.2755H42.2954M42.2954 36.2755H42.2954M42.2954 36.2755H42.2954M42.2954 36.2755H42.2955M42.2954 36.2755H42.2955M42.2955 36.2755H42.2955M42.2955 36.2755H42.2955M42.2955 36.2755H42.2955M42.2955 36.2755H42.2955M42.2955 36.2755H42.2956M42.2955 36.2755H42.2956M42.2956 36.2755H42.2956M42.2956 36.2755H42.2956M42.2956 36.2755H42.2956M42.2956 36.2755H42.2956M42.2956 36.2755H42.2957M42.2956 36.2755H42.2957M42.2957 36.2755H42.2957M42.2957 36.2755H42.2957M42.2957 36.2755H42.2957M42.2957 36.2755H42.2957M42.2957 36.2755H42.2958M42.2957 36.2755H42.2958M42.2958 36.2755H42.2958M42.2958 36.2755H42.2958M42.2958 36.2755H42.2958M42.2958 36.2755H42.2958M42.2958 36.2755H42.2959M42.2958 36.2755H42.2959M42.2959 36.2755H42.2959M42.2959 36.2755H42.2959M42.2959 36.2755H42.2959M42.2959 36.2755H42.2959M42.2959 36.2755H42.296M42.2959 36.2755H42.296M42.296 36.2755H42.296M42.296 36.2755H42.296M42.296 36.2755H42.296M42.296 36.2755H42.296M42.296 36.2755H42.2961M42.296 36.2755H42.2961M42.2961 36.2755H42.2961M42.2961 36.2755H42.2961M42.2961 36.2755H42.2961M42.2961 36.2755H42.2961M42.2961 36.2755H42.2962M42.2961 36.2755H42.2962M42.2962 36.2755H42.2962M42.2962 36.2755H42.2962M42.2962 36.2755H42.2962M42.2962 36.2755H42.2962M42.2962 36.2755H42.2963M42.2962 36.2755H42.2963M42.2963 36.2755H42.2963M42.2963 36.2755H42.2963M42.2963 36.2755H42.2963M42.2963 36.2755H42.2963M42.2963 36.2755H42.2964M42.2963 36.2755H42.2964M42.2964 36.2755H42.2964M42.2964 36.2755H42.2964M42.2964 36.2755H42.2964M42.2964 36.2755H42.2964M42.2964 36.2755H42.2965M42.2964 36.2755H42.2965M42.2965 36.2755H42.2965M42.2965 36.2755H42.2965M42.2965 36.2755H42.2965M42.2965 36.2755H42.2965M42.2965 36.2755H42.2966M42.2965 36.2755H42.2966M42.2966 36.2755H42.2966M42.2966 36.2755H42.2966M42.2966 36.2755H42.2966M42.2966 36.2755H42.2966M42.2966 36.2755H42.2967M42.2966 36.2755H42.2967M42.2967 36.2755H42.2967M42.2967 36.2755H42.2967M42.2967 36.2755H42.2967M42.2967 36.2755H42.2967M42.2967 36.2755H42.2968M42.2967 36.2755H42.2968M42.2968 36.2755H42.2968M42.2968 36.2755H42.2968M42.2968 36.2755H42.2968M42.2968 36.2755H42.2968M42.2968 36.2755H42.2969M42.2968 36.2755H42.2969M42.2969 36.2755H42.2969M42.2969 36.2755H42.2969M42.2969 36.2755H42.2969M42.2969 36.2755H42.2969M42.2969 36.2755H42.297M42.2969 36.2755H42.297M42.297 36.2755H42.297M42.297 36.2755H42.297M42.297 36.2755H42.297M42.297 36.2755H42.297M42.297 36.2755H42.2971M42.297 36.2755H42.2971M42.2971 36.2755H42.2971M42.2971 36.2755H42.2971M42.2971 36.2755H42.2971M42.2971 36.2755H42.2971M42.2971 36.2755H42.2972M42.2971 36.2755H42.2972M42.2972 36.2755H42.2972M42.2972 36.2755H42.2972M42.2972 36.2755H42.2972M42.2972 36.2755H42.2972M42.2972 36.2755H42.2973M42.2972 36.2755H42.2973M42.2973 36.2755H42.2973M42.2973 36.2755H42.2973M42.2973 36.2755H42.2973M42.2973 36.2755H42.2973M42.2973 36.2755H42.2974M42.2973 36.2755H42.2974M42.2974 36.2755H42.2974M42.2974 36.2755H42.2974M42.2974 36.2755H42.2975M42.2974 36.2755H42.2975M42.2975 36.2755H42.2975M42.2975 36.2755H42.2975M42.2975 36.2755H42.2975M42.2975 36.2755H42.2975M42.2975 36.2755H42.2976M42.2975 36.2755H42.2976M42.2976 36.2755H42.2976M42.2976 36.2755H42.2976M42.2976 36.2755H42.2976M42.2976 36.2755H42.2976M42.2976 36.2755H42.2977M42.2976 36.2755H42.2977M42.2977 36.2755H42.2977M42.2977 36.2755H42.2977M42.2977 36.2755H42.2977M42.2977 36.2755H42.2977M42.2977 36.2755H42.2978M42.2977 36.2755H42.2978M42.2978 36.2755H42.2978M42.2978 36.2755H42.2978M42.2978 36.2755H42.2978M42.2978 36.2755H42.2978M42.2978 36.2755H42.2979M42.2978 36.2755H42.2979M42.2979 36.2755H42.2979M42.2979 36.2755H42.2979M42.2979 36.2755H42.2979M42.2979 36.2755H42.2979M42.2979 36.2755H42.298M42.2979 36.2755H42.298M42.298 36.2755H42.298M42.298 36.2755H42.298M42.298 36.2755H42.298M42.298 36.2755H42.298M42.298 36.2755H42.2981M42.298 36.2755H42.2981M42.2981 36.2755H42.2981M42.2981 36.2755H42.2981M42.2981 36.2755H42.2981M42.2981 36.2755H42.2981M42.2981 36.2755H42.2982M42.2981 36.2755H42.2982M42.2982 36.2755H42.299C42.8588 36.2755 43.3182 35.8275 43.3302 35.2653L42.2982 36.2755Z" fill="#C7D9A7" stroke="#C7D9A7" stroke-width="0.5"/>
</g>
</g>
<g id="Group_12">
<g id="Group_13">
<path id="Vector_15" d="M10.679 42.2359H10.5753C10.2247 42.2359 9.89186 42.0577 9.70046 41.7508L10.679 42.2359ZM10.679 42.2359L10.6856 42.2293M10.679 42.2359L10.6856 42.2293M10.6856 42.2293C10.7225 42.2254 10.7596 42.2194 10.7968 42.2112M10.6856 42.2293L9.70037 41.7507C9.64515 41.6622 8.46396 39.7532 7.90157 37.37L7.90155 37.3699C7.50749 35.6985 7.50958 34.1904 7.91463 32.8896C8.32069 31.5856 9.12711 30.5054 10.3132 29.6882C11.4747 28.8877 15.6639 26.5451 16.077 26.3141C16.0898 26.307 16.0989 26.3019 16.1043 26.2989L16.1046 26.2987C16.5765 26.0353 17.1717 26.1813 17.4692 26.6324L17.4694 26.6327C17.518 26.7065 18.054 27.5337 18.4318 28.6788C18.8081 29.819 19.041 31.316 18.4277 32.7008C18.2439 33.1159 17.8721 33.5443 17.3612 34.0234C16.8461 34.5063 16.1641 35.0633 15.3334 35.7314L15.3334 35.7315C14.7968 36.1628 14.2005 36.6426 13.6987 37.0836C13.4479 37.304 13.2236 37.5122 13.0438 37.6976C12.8608 37.8864 12.7361 38.0394 12.6728 38.1502L12.6728 38.1502C11.8454 39.5981 11.6099 41.2663 11.6003 41.3359C11.5436 41.7675 11.2228 42.1185 10.7968 42.2112M10.7968 42.2112C10.7966 42.2112 10.7964 42.2113 10.7963 42.2113L10.7432 41.967L10.7971 42.2111C10.797 42.2111 10.7969 42.2112 10.7968 42.2112ZM10.3254 38.2669C10.4797 37.8918 10.663 37.505 10.8802 37.1251L10.3254 38.2669ZM10.3254 38.2669C10.17 37.8404 10.0252 37.3776 9.91131 36.8958C9.60714 35.6066 9.59832 34.5086 9.86269 33.598C10.1257 32.6923 10.6635 31.9556 11.4845 31.3897C12.2815 30.8404 14.8097 29.3993 16.1946 28.6177C16.3721 29.0096 16.5562 29.4997 16.66 30.0179C16.7866 30.6502 16.789 31.3006 16.5396 31.8638L16.5394 31.8641C16.5114 31.9277 16.4164 32.0528 16.2385 32.2361C16.0691 32.4106 15.8481 32.6143 15.6001 32.8313C15.1042 33.2651 14.5138 33.7399 14.0395 34.1213L14.0395 34.1214L14.0394 34.1214L14.022 34.1354C13.3525 34.6744 12.6945 35.2041 12.1455 35.7008C11.5961 36.1978 11.1339 36.6809 10.8802 37.125L10.3254 38.2669ZM15.1767 35.5366C14.1056 36.3978 12.7735 37.4699 12.4557 38.0262L15.1767 35.5366Z" fill="#C7D9A7" stroke="#C7D9A7" stroke-width="0.5"/>
<path id="Vector_16" d="M15.1733 26.8506C13.8053 27.6603 11.2935 29.1316 10.4197 29.5482L15.1733 26.8506ZM15.1733 26.8506C14.9232 26.5008 14.5913 26.0958 14.1946 25.7465C13.7125 25.3219 13.1529 24.9953 12.5432 24.9286L12.5402 24.9284L12.5349 24.928C12.5334 24.9279 12.5312 24.9277 12.5279 24.9277C12.4198 24.9277 12.2451 24.9572 12.0088 25.0185C11.7777 25.0785 11.5051 25.1641 11.2085 25.2656C10.6154 25.4688 9.94092 25.7307 9.33425 25.9664L9.33419 25.9664L9.31583 25.9736C8.51639 26.2839 7.73063 26.589 7.02739 26.8166C6.3242 27.0443 5.67649 27.2039 5.16589 27.2039H5.15601H5.15507C4.71858 27.2022 4.29317 27.1679 3.89221 27.1142C4.39504 27.7166 5.00427 28.3429 5.69394 28.8554C6.57938 29.5135 7.58001 29.9714 8.64764 29.9714C9.23149 29.9714 9.82722 29.8306 10.4196 29.5482L15.1733 26.8506ZM1.88126 24.479L1.88128 24.4789L1.87632 24.4768C1.47423 24.3082 1.00915 24.4105 0.714776 24.7335C0.420267 25.0565 0.361936 25.5283 0.565674 25.9136L1.88126 24.479Z" fill="#C7D9A7" stroke="#C7D9A7" stroke-width="0.5"/>
</g>
<g id="Group_14">
<path id="Vector_17" d="M5.37175 37.3556L5.37195 37.3556C5.87695 37.4356 6.38116 37.4634 6.83373 37.4634H6.83456C7.79973 37.4634 8.54532 37.339 8.60004 37.3298L8.60052 37.3298L8.60183 37.3295C9.16324 37.2328 9.54136 36.6991 9.44464 36.1368C9.34816 35.5757 8.81538 35.1952 8.25218 35.2934L8.25218 35.2933L8.24898 35.2939C8.24914 35.2939 8.24872 35.294 8.24772 35.2941C8.22497 35.2978 7.90418 35.3501 7.4373 35.3792C6.94987 35.4096 6.31376 35.414 5.69652 35.3158L5.69647 35.3158C4.52894 35.1303 3.26316 34.3769 3.23173 34.3581C2.744 34.0619 2.10974 34.2176 1.81434 34.7054C1.51807 35.1934 1.67328 35.8284 2.16113 36.1243L2.16163 36.1246L2.16177 36.1246C2.22883 36.1651 3.78332 37.1027 5.37175 37.3556Z" fill="#C7D9A7" stroke="#C7D9A7" stroke-width="0.5"/>
<path id="Vector_18" d="M2.79967 36.2755H2.69618C2.13639 36.2755 1.67697 35.8275 1.66493 35.2654C1.66493 35.2654 1.66493 35.2653 1.66493 35.2653L1.91487 35.2599L2.79967 36.2755ZM2.79967 36.2755L2.80595 36.2692M2.79967 36.2755L2.80595 36.2692M2.80595 36.2692C3.33439 36.2141 3.74042 35.7612 3.72909 35.2201L3.72909 35.22C3.72028 34.8071 3.7784 33.5318 4.13331 32.6052L4.13337 32.605C4.35405 32.0278 4.67397 31.4809 4.94383 31.0728C5.07823 30.8696 5.19903 30.7025 5.28694 30.5854C5.33088 30.5269 5.36652 30.481 5.39146 30.4494L5.42047 30.413C5.42658 30.4054 5.42994 30.4013 5.43057 30.4005L5.43067 30.4004L5.43087 30.4002C5.79505 29.9616 5.73394 29.3106 5.29636 28.9465L5.29612 28.9463C4.85787 28.5825 4.20765 28.6416 3.84327 29.0802L2.80595 36.2692Z" fill="#C7D9A7" stroke="#C7D9A7" stroke-width="0.5"/>
</g>
</g>
</g>
</g>
</svg>
