<svg width="47" height="45" viewBox="0 0 47 45" fill="none" xmlns="http://www.w3.org/2000/svg">
<g id="icons-small">
<path id="Vector (Stroke)" fill-rule="evenodd" clip-rule="evenodd" d="M15.7253 5.17726C18.0596 4.23498 20.5616 3.75 23.0882 3.75C25.6149 3.75 28.1168 4.23498 30.4511 5.17726C32.7855 6.11953 34.9065 7.50065 36.6931 9.24175C38.4797 10.9828 39.8969 13.0498 40.8638 15.3247C41.8308 17.5995 42.3284 20.0377 42.3284 22.5C42.3284 24.9623 41.8308 27.4005 40.8638 29.6753C39.8969 31.9502 38.4797 34.0172 36.6931 35.7583C34.9065 37.4993 32.7855 38.8805 30.4511 39.8227C28.1168 40.765 25.6149 41.25 23.0882 41.25C20.5616 41.25 18.0596 40.765 15.7253 39.8227C13.391 38.8805 11.27 37.4993 9.48335 35.7583C7.69673 34.0172 6.27951 31.9502 5.3126 29.6753C4.34568 27.4005 3.84802 24.9623 3.84802 22.5C3.84802 20.0377 4.34568 17.5995 5.3126 15.3247C6.27951 13.0498 7.69673 10.9828 9.48335 9.24175C11.27 7.50065 13.391 6.11953 15.7253 5.17726ZM23.0882 7.5C21.0669 7.5 19.0654 7.88799 17.1979 8.64181C15.3304 9.39563 13.6336 10.5005 12.2043 11.8934C10.775 13.2863 9.64125 14.9399 8.86772 16.7597C8.09419 18.5796 7.69606 20.5302 7.69606 22.5C7.69606 24.4698 8.09419 26.4204 8.86772 28.2403C9.64125 30.0601 10.775 31.7137 12.2043 33.1066C13.6336 34.4995 15.3304 35.6044 17.1979 36.3582C19.0654 37.112 21.0669 37.5 23.0882 37.5C25.1095 37.5 27.1111 37.112 28.9785 36.3582C30.846 35.6044 32.5428 34.4995 33.9721 33.1066C35.4014 31.7137 36.5352 30.0601 37.3087 28.2403C38.0822 26.4204 38.4804 24.4698 38.4804 22.5C38.4804 20.5302 38.0822 18.5796 37.3087 16.7597C36.5352 14.9399 35.4014 13.2863 33.9721 11.8934C32.5428 10.5005 30.846 9.39563 28.9785 8.64181C27.1111 7.88799 25.1095 7.5 23.0882 7.5Z" fill="#C7D9A7"/>
<path id="Vector (Stroke)_2" fill-rule="evenodd" clip-rule="evenodd" d="M19.7342 26.9079C20.7961 26.473 21.9364 26.249 23.0883 26.249C24.2401 26.249 25.3804 26.473 26.4423 26.9079C27.5043 27.3427 28.4665 27.9797 29.2726 28.7815C30.0163 29.5212 30.0038 30.7083 29.2448 31.433C28.4858 32.1577 27.2677 32.1456 26.524 31.406C26.0762 30.9605 25.5416 30.6066 24.9516 30.365C24.3617 30.1235 23.7282 29.999 23.0883 29.999C22.4483 29.999 21.8148 30.1235 21.2249 30.365C20.6349 30.6066 20.1004 30.9605 19.6525 31.406C18.9088 32.1456 17.6907 32.1577 16.9317 31.433C16.1727 30.7083 16.1602 29.5212 16.9039 28.7815C17.71 27.9797 18.6723 27.3427 19.7342 26.9079Z" fill="#C7D9A7"/>
<path id="Vector (Stroke)_3" fill-rule="evenodd" clip-rule="evenodd" d="M14.9937 14.6117C15.7451 13.8794 16.9633 13.8794 17.7147 14.6117L20.6007 17.4242C21.3521 18.1564 21.3521 19.3436 20.6007 20.0758L17.7147 22.8883C16.9633 23.6206 15.7451 23.6206 14.9937 22.8883C14.2423 22.1561 14.2423 20.9689 14.9937 20.2367L16.5193 18.75L14.9937 17.2633C14.2423 16.5311 14.2423 15.3439 14.9937 14.6117Z" fill="#C7D9A7"/>
<path id="Vector (Stroke)_4" fill-rule="evenodd" clip-rule="evenodd" d="M31.1828 14.6117C31.9342 15.3439 31.9342 16.5311 31.1828 17.2633L29.6573 18.75L31.1828 20.2367C31.9342 20.9689 31.9342 22.1561 31.1828 22.8883C30.4314 23.6206 29.2132 23.6206 28.4618 22.8883L25.5758 20.0758C24.8244 19.3436 24.8244 18.1564 25.5758 17.4242L28.4618 14.6117C29.2132 13.8794 30.4314 13.8794 31.1828 14.6117Z" fill="#C7D9A7"/>
</g>
</svg>
