<svg width="47" height="45" viewBox="0 0 47 45" fill="none" xmlns="http://www.w3.org/2000/svg">
<g id="icons-small">
<path id="Vector (Stroke)" fill-rule="evenodd" clip-rule="evenodd" d="M9.14734 9.14752C10.2022 8.09263 11.633 7.5 13.1248 7.5H16.8748C17.9104 7.5 18.7498 8.33947 18.7498 9.375C18.7498 10.4105 17.9104 11.25 16.8748 11.25H13.1248C12.6275 11.25 12.1506 11.4475 11.799 11.7992C11.4474 12.1508 11.2498 12.6277 11.2498 13.125V35.625C11.2498 36.1223 11.4474 36.5992 11.799 36.9508C12.1506 37.3025 12.6275 37.5 13.1248 37.5H31.8748C32.3721 37.5 32.849 37.3025 33.2006 36.9508C33.5523 36.5992 33.7498 36.1223 33.7498 35.625V13.125C33.7498 12.6277 33.5523 12.1508 33.2006 11.7992C32.849 11.4475 32.3721 11.25 31.8748 11.25H28.1248C27.0893 11.25 26.2498 10.4105 26.2498 9.375C26.2498 8.33947 27.0893 7.5 28.1248 7.5H31.8748C33.3667 7.5 34.7974 8.09263 35.8523 9.14752C36.9072 10.2024 37.4998 11.6332 37.4998 13.125V35.625C37.4998 37.1168 36.9072 38.5476 35.8523 39.6025C34.7974 40.6574 33.3667 41.25 31.8748 41.25H13.1248C11.633 41.25 10.2022 40.6574 9.14734 39.6025C8.09245 38.5476 7.49982 37.1168 7.49982 35.625V13.125C7.49982 11.6332 8.09245 10.2024 9.14734 9.14752Z" fill="#FDCDC1"/>
<path id="Vector" d="M16.875 9.375C16.875 8.38044 17.2701 7.42661 17.9734 6.72335C18.6766 6.02009 19.6304 5.625 20.625 5.625H24.375C25.3696 5.625 26.3234 6.02009 27.0266 6.72335C27.7299 7.42661 28.125 8.38044 28.125 9.375C28.125 10.3696 27.7299 11.3234 27.0266 12.0267C26.3234 12.7299 25.3696 13.125 24.375 13.125H20.625C19.6304 13.125 18.6766 12.7299 17.9734 12.0267C17.2701 11.3234 16.875 10.3696 16.875 9.375Z" fill="#FDCDC1"/>
<path id="Vector (Stroke)_2" fill-rule="evenodd" clip-rule="evenodd" d="M20.625 7.5C20.1277 7.5 19.6508 7.69754 19.2992 8.04917C18.9475 8.40081 18.75 8.87772 18.75 9.375C18.75 9.87228 18.9475 10.3492 19.2992 10.7008C19.6508 11.0525 20.1277 11.25 20.625 11.25H24.375C24.8723 11.25 25.3492 11.0525 25.7008 10.7008C26.0525 10.3492 26.25 9.87228 26.25 9.375C26.25 8.87772 26.0525 8.40081 25.7008 8.04917C25.3492 7.69754 24.8723 7.5 24.375 7.5H20.625ZM16.6475 5.39752C17.7024 4.34263 19.1332 3.75 20.625 3.75H24.375C25.8668 3.75 27.2976 4.34263 28.3525 5.39752C29.4074 6.45242 30 7.88316 30 9.375C30 10.8668 29.4074 12.2976 28.3525 13.3525C27.2976 14.4074 25.8668 15 24.375 15H20.625C19.1332 15 17.7024 14.4074 16.6475 13.3525C15.5926 12.2976 15 10.8668 15 9.375C15 7.88316 15.5926 6.45242 16.6475 5.39752Z" fill="#FDCDC1"/>
<path id="Vector_2" d="M22.4867 31.4063L27.6373 26.1282C28.2744 25.4647 28.6302 24.5806 28.6302 23.6607C28.6302 22.7409 28.2744 21.8567 27.6373 21.1932C27.3267 20.8699 26.9541 20.6128 26.5416 20.4371C26.1292 20.2614 25.6856 20.1708 25.2373 20.1708C24.789 20.1708 24.3454 20.2614 23.9329 20.4371C23.5205 20.6128 23.1479 20.8699 22.8373 21.1932L22.4942 21.5457L22.151 21.1913C21.8405 20.8681 21.4678 20.6109 21.0554 20.4352C20.643 20.2595 20.1993 20.1689 19.751 20.1689C19.3028 20.1689 18.8591 20.2595 18.4467 20.4352C18.0343 20.6109 17.6616 20.8681 17.351 21.1913C16.7135 21.8546 16.3574 22.7389 16.3574 23.6588C16.3574 24.5788 16.7135 25.4631 17.351 26.1263L22.4848 31.4232L22.4867 31.4063Z" fill="#FDCDC1"/>
<path id="Vector (Stroke)_3" fill-rule="evenodd" clip-rule="evenodd" d="M18.0548 19.5152C18.5911 19.2867 19.1681 19.1689 19.751 19.1689C20.334 19.1689 20.911 19.2867 21.4473 19.5152C21.8258 19.6764 22.1785 19.8904 22.4953 20.1502C22.8115 19.8913 23.1635 19.6779 23.541 19.5171C24.0774 19.2886 24.6543 19.1708 25.2373 19.1708C25.8203 19.1708 26.3972 19.2886 26.9336 19.5171C27.4699 19.7455 27.9545 20.08 28.3584 20.5004C29.1744 21.3501 29.6302 22.4827 29.6302 23.6607C29.6302 24.8388 29.1745 25.9711 28.3586 26.8208L28.353 26.8266L23.2937 32.0111C23.175 32.1745 23.0072 32.3014 22.8084 32.3694C22.442 32.4947 22.0362 32.3972 21.7667 32.1192L16.6301 26.8193C15.8135 25.9698 15.3574 24.8372 15.3574 23.6588C15.3574 22.4806 15.8134 21.348 16.6299 20.4985M22.48 29.9814L26.9185 25.4329C27.3752 24.956 27.6302 24.3211 27.6302 23.6607C27.6302 22.9992 27.3743 22.3632 26.9162 21.886M22.48 29.9814L18.072 25.4333C18.0716 25.4329 18.0711 25.4325 18.0707 25.432C17.613 24.9552 17.3574 24.3198 17.3574 23.6588C17.3574 22.9972 17.6135 22.3613 18.072 21.8843C18.2892 21.6582 18.5501 21.4781 18.8386 21.3552C19.1271 21.2323 19.4375 21.1689 19.751 21.1689C20.0646 21.1689 20.375 21.2323 20.6635 21.3552C20.952 21.4781 21.2127 21.658 21.4299 21.8841L21.7758 22.2413C21.9638 22.4355 22.2225 22.5454 22.4928 22.5457C22.7632 22.5461 23.0222 22.437 23.2107 22.2432L23.5539 21.8907L23.5584 21.886C23.7757 21.6599 24.0364 21.48 24.3249 21.3571C24.6134 21.2342 24.9237 21.1708 25.2373 21.1708C25.5509 21.1708 25.8612 21.2342 26.1497 21.3571C26.4381 21.4799 26.699 21.66 26.9162 21.886M18.0548 19.5152C17.5185 19.7436 17.0338 20.0782 16.6299 20.4985L18.0548 19.5152Z" fill="#FDCDC1"/>
</g>
</svg>
