<svg width="47" height="45" viewBox="0 0 47 45" fill="none" xmlns="http://www.w3.org/2000/svg">
<g id="icons-small">
<path id="&#229;&#189;&#162;&#231;&#138;&#182;" fill-rule="evenodd" clip-rule="evenodd" d="M17.3162 5.625C13.0657 5.625 9.62008 8.98286 9.62008 13.125V15.2363C6.30071 16.0689 3.84802 19.0054 3.84802 22.5C3.84802 25.9946 6.30071 28.9311 9.62008 29.7638V31.875C9.62008 36.0171 13.0657 39.375 17.3162 39.375C19.6148 39.375 21.6781 38.3929 23.0882 36.8359C24.4983 38.3929 26.5617 39.375 28.8603 39.375C33.1106 39.375 36.5564 36.0171 36.5564 31.875V29.7638C39.8757 28.9311 42.3284 25.9946 42.3284 22.5C42.3284 19.0054 39.8757 16.0689 36.5564 15.2363V13.125C36.5564 8.98286 33.1106 5.625 28.8603 5.625C26.5617 5.625 24.4983 6.60705 23.0882 8.16409C21.6781 6.60705 19.6148 5.625 17.3162 5.625ZM32.7083 16.875V13.125C32.7083 11.0539 30.9856 9.375 28.8603 9.375C26.735 9.375 25.0122 11.0539 25.0122 13.125V21.6283C26.1441 20.9903 27.4584 20.625 28.8603 20.625C29.9229 20.625 30.7843 21.4644 30.7843 22.5C30.7843 23.5356 29.9229 24.375 28.8603 24.375C26.735 24.375 25.0122 26.0539 25.0122 28.125V31.875C25.0122 33.9461 26.735 35.625 28.8603 35.625C30.9856 35.625 32.7083 33.9461 32.7083 31.875V29.7632C32.4909 29.7086 32.277 29.6451 32.0672 29.5727C31.0652 29.2277 30.5401 28.1565 30.8944 27.18C31.2484 26.2037 32.3476 25.692 33.3494 26.0372C33.7483 26.1744 34.1792 26.25 34.6323 26.25C36.7576 26.25 38.4804 24.5711 38.4804 22.5C38.4804 20.4289 36.7576 18.75 34.6323 18.75C33.5697 18.75 32.7083 17.9105 32.7083 16.875ZM17.3162 24.375C19.4414 24.375 21.1642 26.0539 21.1642 28.125V31.875C21.1642 33.9461 19.4414 35.625 17.3162 35.625C15.1909 35.625 13.4681 33.9461 13.4681 31.875V29.7632C13.6856 29.7086 13.8994 29.6451 14.1093 29.5727C15.1112 29.2277 15.6363 28.1565 15.2822 27.18C14.928 26.2037 13.8288 25.692 12.8269 26.0372C12.4282 26.1744 11.9973 26.25 11.5441 26.25C9.41889 26.25 7.69606 24.5711 7.69606 22.5C7.69606 20.4289 9.41889 18.75 11.5441 18.75C12.6067 18.75 13.4681 17.9105 13.4681 16.875V13.125C13.4681 11.0539 15.1909 9.375 17.3162 9.375C19.4414 9.375 21.1642 11.0539 21.1642 13.125V21.6283C20.0323 20.9903 18.7179 20.625 17.3162 20.625C16.2536 20.625 15.3921 21.4644 15.3921 22.5C15.3921 23.5356 16.2536 24.375 17.3162 24.375Z" fill="#FFD976"/>
</g>
</svg>
