<svg width="47" height="45" viewBox="0 0 47 45" fill="none" xmlns="http://www.w3.org/2000/svg">
<g id="icons-small">
<path id="Vector" d="M38.51 17.9322H27.98L39.5 6.40219C39.63 6.27219 39.73 6.12219 39.8 5.94219C39.94 5.59219 39.94 5.21219 39.8 4.86219C39.66 4.52219 39.38 4.24219 39.04 4.10219C38.87 4.03219 38.69 3.99219 38.5 3.99219H24.57C23.79 3.99219 23.16 4.62219 23.16 5.40219C23.16 6.18219 23.79 6.81219 24.57 6.81219H35.1L23.58 18.3422C23.45 18.4722 23.35 18.6222 23.28 18.8022C23.14 19.1522 23.14 19.5322 23.28 19.8822C23.42 20.2222 23.7 20.5022 24.04 20.6422C24.21 20.7122 24.39 20.7522 24.58 20.7522H38.51C39.29 20.7522 39.92 20.1222 39.92 19.3422C39.92 18.5622 39.29 17.9322 38.51 17.9322ZM17.67 24.9622H9.8L18.66 16.1022C18.79 15.9722 18.89 15.8122 18.96 15.6422C19.1 15.3022 19.1 14.9122 18.96 14.5722C18.82 14.2222 18.54 13.9522 18.2 13.8122C18.03 13.7422 17.85 13.7022 17.66 13.7022H6.41C5.63 13.7022 5 14.3322 5 15.1122C5 15.8922 5.63 16.5222 6.41 16.5222H14.28L5.41 25.3722C5.28 25.5022 5.18 25.6522 5.11 25.8322C4.97 26.1722 4.97 26.5622 5.11 26.9022C5.25 27.2522 5.53 27.5222 5.87 27.6622C6.04 27.7322 6.22 27.7722 6.41 27.7722H17.67C18.45 27.7722 19.08 27.1422 19.08 26.3622C19.08 25.5822 18.45 24.9522 17.67 24.9522V24.9622ZM26.53 38.6822H21.99L27.52 33.1522C27.65 33.0222 27.75 32.8722 27.82 32.6922C27.96 32.3522 27.96 31.9622 27.82 31.6122C27.68 31.2722 27.4 30.9922 27.06 30.8522C26.89 30.7822 26.71 30.7422 26.52 30.7422H18.59C17.81 30.7422 17.18 31.3722 17.18 32.1522C17.18 32.9322 17.81 33.5622 18.59 33.5622H23.13L17.6 39.0922C17.47 39.2222 17.37 39.3822 17.3 39.5522C17.16 39.8922 17.16 40.2822 17.3 40.6222C17.44 40.9622 17.72 41.2422 18.06 41.3822C18.23 41.4522 18.41 41.4922 18.6 41.4922H26.53C27.31 41.4922 27.94 40.8622 27.94 40.0822C27.94 39.3022 27.31 38.6722 26.53 38.6722V38.6822Z" fill="#FFD976"/>
<path id="Vector (Stroke)" fill-rule="evenodd" clip-rule="evenodd" d="M39.8 4.86219C39.94 5.21219 39.94 5.59219 39.8 5.94219C39.73 6.12219 39.63 6.27219 39.5 6.40219L27.98 17.9322H38.51C39.29 17.9322 39.92 18.5622 39.92 19.3422C39.92 20.1222 39.29 20.7522 38.51 20.7522H24.58C24.39 20.7522 24.21 20.7122 24.04 20.6422C23.7 20.5022 23.42 20.2222 23.28 19.8822C23.14 19.5322 23.14 19.1522 23.28 18.8022C23.35 18.6222 23.45 18.4722 23.58 18.3422L35.1 6.81219H24.57C23.79 6.81219 23.16 6.18219 23.16 5.40219C23.16 4.62219 23.79 3.99219 24.57 3.99219H38.5C38.69 3.99219 38.87 4.03219 39.04 4.10219C39.38 4.24219 39.66 4.52219 39.8 4.86219ZM33.8936 7.31219H24.57C23.5139 7.31219 22.66 6.45833 22.66 5.40219C22.66 4.34605 23.5139 3.49219 24.57 3.49219H38.5C38.762 3.49219 39.0065 3.54766 39.2304 3.63985C39.6937 3.83062 40.0716 4.20852 40.2623 4.67181L40.2642 4.67649C40.4516 5.14495 40.4519 5.65705 40.2651 6.12565C40.1695 6.37072 40.0309 6.57835 39.8536 6.75574L29.1864 17.4322H38.51C39.5661 17.4322 40.42 18.286 40.42 19.3422C40.42 20.3983 39.5661 21.2522 38.51 21.2522H24.58C24.318 21.2522 24.0735 21.1967 23.8496 21.1045C23.3863 20.9138 23.0084 20.5359 22.8177 20.0726L22.8157 20.0679C22.6284 19.5994 22.6281 19.0873 22.8149 18.6187C22.9105 18.3737 23.0491 18.166 23.2264 17.9886L33.8936 7.31219ZM5.41 25.3722L14.28 16.5222H6.41C5.63 16.5222 5 15.8922 5 15.1122C5 14.3322 5.63 13.7022 6.41 13.7022H17.66C17.85 13.7022 18.03 13.7422 18.2 13.8122C18.54 13.9522 18.82 14.2222 18.96 14.5722C19.1 14.9122 19.1 15.3022 18.96 15.6422C18.89 15.8122 18.79 15.9722 18.66 16.1022L9.8 24.9622H17.67V24.9522C17.7273 24.9522 17.7837 24.9556 17.8392 24.9622C17.9543 24.9759 18.0652 25.0034 18.17 25.0431C18.7024 25.2444 19.08 25.7583 19.08 26.3622C19.08 27.1422 18.45 27.7722 17.67 27.7722H6.41C6.22 27.7722 6.04 27.7322 5.87 27.6622C5.53 27.5222 5.25 27.2522 5.11 26.9022C4.97 26.5622 4.97 26.1722 5.11 25.8322C5.18 25.6522 5.28 25.5022 5.41 25.3722ZM4.64578 25.6464C4.7414 25.4023 4.87962 25.1955 5.05645 25.0186L13.071 17.0222H6.41C5.35386 17.0222 4.5 16.1683 4.5 15.1122C4.5 14.056 5.35386 13.2022 6.41 13.2022H17.66C17.922 13.2022 18.1665 13.2577 18.3904 13.3498C18.8478 13.5382 19.2302 13.9033 19.4233 14.3841C19.6126 14.8455 19.6122 15.3714 19.4223 15.8326C19.3312 16.0538 19.1972 16.2721 19.0136 16.4557L11.0071 24.4622H17.17V24.4522H17.67C18.7261 24.4522 19.58 25.306 19.58 26.3622C19.58 27.4183 18.7261 28.2722 17.67 28.2722H6.41C6.14801 28.2722 5.90351 28.2167 5.67963 28.1245C5.22214 27.9361 4.83978 27.571 4.64669 27.0902C4.45807 26.6303 4.45777 26.1065 4.64578 25.6464ZM27.03 38.7631C27.5624 38.9644 27.94 39.4783 27.94 40.0822C27.94 40.8622 27.31 41.4922 26.53 41.4922H18.6C18.41 41.4922 18.23 41.4522 18.06 41.3822C17.72 41.2422 17.44 40.9622 17.3 40.6222C17.16 40.2822 17.16 39.8922 17.3 39.5522C17.37 39.3822 17.47 39.2222 17.6 39.0922L23.13 33.5622H18.59C17.81 33.5622 17.18 32.9322 17.18 32.1522C17.18 31.3722 17.81 30.7422 18.59 30.7422H26.52C26.71 30.7422 26.89 30.7822 27.06 30.8522C27.4 30.9922 27.68 31.2722 27.82 31.6122C27.96 31.9622 27.96 32.3522 27.82 32.6922C27.75 32.8722 27.65 33.0222 27.52 33.1522L21.99 38.6822H26.53V38.6722C26.5873 38.6722 26.6437 38.6756 26.6992 38.6822C26.8144 38.6959 26.9252 38.7234 27.03 38.7631ZM26.03 38.1822V38.1722H26.53C27.5861 38.1722 28.44 39.026 28.44 40.0822C28.44 41.1383 27.5861 41.9922 26.53 41.9922H18.6C18.338 41.9922 18.0935 41.9367 17.8696 41.8445C17.4063 41.6538 17.0284 41.2758 16.8377 40.8126C16.6474 40.3506 16.6474 39.8238 16.8377 39.3618C16.9288 39.1406 17.0628 38.9223 17.2464 38.7386L21.9229 34.0622H18.59C17.5339 34.0622 16.68 33.2083 16.68 32.1522C16.68 31.096 17.5339 30.2422 18.59 30.2422H26.52C26.782 30.2422 27.0265 30.2977 27.2504 30.3898C27.7137 30.5806 28.0916 30.9585 28.2823 31.4218L28.2843 31.4265C28.4706 31.8924 28.4732 32.4155 28.2842 32.878C28.1886 33.1221 28.0504 33.3289 27.8736 33.5057L23.1971 38.1822H26.03Z" fill="#FFD976"/>
</g>
</svg>
